<svg width="32" height="32" viewBox="0 0 32 32" fill="none" xmlns="http://www.w3.org/2000/svg">
<path fill-rule="evenodd" clip-rule="evenodd" d="M4 13.9271C4 11.7179 5.79086 9.92708 8 9.92708L15.9987 9.92711L26.9107 5.15111C27.0083 5.07104 27.1267 5.02036 27.2521 5.00497C27.3774 4.98958 27.5046 5.01011 27.6187 5.06418C27.7329 5.11824 27.8293 5.20361 27.8968 5.31036C27.9643 5.4171 28.0001 5.54082 28 5.66711V24.8538C28.0001 24.9801 27.9643 25.1038 27.8968 25.2105C27.8293 25.3173 27.7329 25.4027 27.6187 25.4567C27.5046 25.5108 27.3774 25.5313 27.2521 25.5159C27.1267 25.5005 27.0083 25.4499 26.9107 25.3698L16 20.5938V27.1271C16 27.9371 15.3434 28.5938 14.5333 28.5938H10.8C9.98998 28.5938 9.33333 27.9371 9.33333 27.1271V20.5938H8C5.79086 20.5938 4 18.8029 4 16.5938V13.9271ZM16.9507 12.5938L25.3333 9.09V21.43L16.9507 17.9271L12 17.9271V12.5938H16.9507ZM6.66667 16.5938C6.66667 17.3301 7.26362 17.9271 8 17.9271H9.33333V12.5938H8C7.26362 12.5938 6.66667 13.1907 6.66667 13.9271V16.5938ZM12 20.5938H13.3333V25.9271H12V20.5938Z" fill="#1D2126"/>
</svg>
