<svg width="32" height="32" viewBox="0 0 32 32" fill="none" xmlns="http://www.w3.org/2000/svg">
<path d="M19.7707 10.3427L12.2294 17.8854C12.102 18.0084 12.0005 18.1555 11.9306 18.3182C11.8607 18.4809 11.8239 18.6558 11.8224 18.8329C11.8209 19.0099 11.8546 19.1855 11.9216 19.3493C11.9887 19.5132 12.0877 19.6621 12.2129 19.7872C12.3381 19.9124 12.4869 20.0114 12.6508 20.0785C12.8146 20.1455 12.9902 20.1793 13.1673 20.1777C13.3443 20.1762 13.5193 20.1394 13.6819 20.0695C13.8446 19.9996 13.9917 19.8981 14.1147 19.7707L21.6574 12.2294C22.4076 11.4792 22.8291 10.4617 22.8291 9.40072C22.8291 8.33976 22.4076 7.32226 21.6574 6.57205C20.9072 5.82184 19.8897 5.40038 18.8287 5.40038C17.7678 5.40038 16.7503 5.82184 16.0001 6.57205L8.45739 14.1147C7.82549 14.7309 7.32223 15.4664 6.9768 16.2786C6.63137 17.0908 6.45065 17.9635 6.44512 18.846C6.43959 19.7286 6.60936 20.6035 6.94459 21.4199C7.27981 22.2364 7.77382 22.9781 8.39794 23.6022C9.02207 24.2262 9.7639 24.7201 10.5804 25.0552C11.3969 25.3903 12.2718 25.56 13.1544 25.5543C14.0369 25.5487 14.9096 25.3678 15.7217 25.0223C16.5339 24.6767 17.2693 24.1734 17.8854 23.5414L25.4281 16.0001L27.3134 17.8854L19.7707 25.4281C18.904 26.2948 17.875 26.9823 16.7426 27.4514C15.6102 27.9204 14.3965 28.1619 13.1707 28.1619C11.945 28.1619 10.7313 27.9204 9.59883 27.4514C8.4664 26.9823 7.43745 26.2948 6.57072 25.4281C5.704 24.5613 5.01648 23.5324 4.54741 22.3999C4.07834 21.2675 3.83691 20.0538 3.83691 18.8281C3.83691 17.6023 4.07834 16.3886 4.54741 15.2562C5.01648 14.1237 5.704 13.0948 6.57072 12.2281L14.1147 4.68672C15.3721 3.47233 17.0561 2.80037 18.8041 2.81556C20.552 2.83075 22.2241 3.53188 23.4602 4.76793C24.6962 6.00398 25.3974 7.67607 25.4125 9.42405C25.4277 11.172 24.7558 12.856 23.5414 14.1134L16.0001 21.6587C15.6285 22.0302 15.1874 22.3248 14.702 22.5258C14.2166 22.7268 13.6963 22.8303 13.1709 22.8302C12.6455 22.8301 12.1253 22.7266 11.6399 22.5255C11.1545 22.3244 10.7135 22.0296 10.3421 21.6581C9.97059 21.2865 9.67594 20.8454 9.47494 20.36C9.27394 19.8746 9.17052 19.3543 9.17058 18.8289C9.17064 18.3035 9.27419 17.7833 9.4753 17.2979C9.67642 16.8125 9.97117 16.3715 10.3427 16.0001L17.8854 8.45739L19.7707 10.3427Z" fill="#1D2126"/>
</svg>
