<svg width="32" height="32" viewBox="0 0 32 32" fill="none" xmlns="http://www.w3.org/2000/svg">
<path fill-rule="evenodd" clip-rule="evenodd" d="M8.29909 4.19635C8.1286 4.47356 7.99967 4.89595 7.99967 5.33325C7.99967 5.77056 8.1286 6.19294 8.29909 6.47015C8.3676 6.58153 8.42042 6.63897 8.45156 6.66658H23.5478C23.5789 6.63897 23.6318 6.58154 23.7003 6.47015C23.8707 6.19294 23.9997 5.77056 23.9997 5.33325C23.9997 4.89595 23.8707 4.47356 23.7003 4.19635C23.6318 4.08497 23.5789 4.02754 23.5478 3.99992H8.45156C8.42042 4.02754 8.3676 4.08497 8.29909 4.19635ZM8.48318 3.97723C8.48327 3.9776 8.48006 3.97979 8.47328 3.98266C8.4797 3.9783 8.48309 3.97686 8.48318 3.97723ZM23.5162 3.97723C23.5163 3.97686 23.5197 3.9783 23.5261 3.98266C23.5193 3.97979 23.5161 3.9776 23.5162 3.97723ZM25.333 8.64418C25.5986 8.40307 25.8116 8.12749 25.9717 7.86717C26.4154 7.14576 26.6663 6.23482 26.6663 5.33325C26.6663 4.43169 26.4154 3.52074 25.9717 2.79933C25.5529 2.11846 24.7723 1.33325 23.636 1.33325H8.36331C7.22709 1.33325 6.44641 2.11846 6.02765 2.79933C5.58396 3.52074 5.33301 4.43169 5.33301 5.33325C5.33301 6.23482 5.58396 7.14576 6.02765 7.86717C6.18776 8.12749 6.40077 8.40307 6.66634 8.64418V23.3556C6.40077 23.5968 6.18776 23.8723 6.02765 24.1327C5.58396 24.8541 5.33301 25.765 5.33301 26.6666C5.33301 27.5681 5.58396 28.4791 6.02765 29.2005C6.44641 29.8814 7.22709 30.6666 8.36331 30.6666H23.636C24.7723 30.6666 25.5529 29.8814 25.9717 29.2005C26.4154 28.4791 26.6663 27.5681 26.6663 26.6666C26.6663 25.765 26.4154 24.8541 25.9717 24.1327C25.8116 23.8723 25.5986 23.5968 25.333 23.3556V8.64418ZM22.6663 9.33325H9.33301V22.6666H22.6663V9.33325ZM23.5478 25.3333H8.45156C8.42042 25.3609 8.3676 25.4183 8.29909 25.5297C8.1286 25.8069 7.99967 26.2293 7.99967 26.6666C7.99967 27.1039 8.1286 27.5263 8.29909 27.8035C8.3676 27.9149 8.42042 27.9723 8.45156 27.9999H23.5478C23.5789 27.9723 23.6318 27.9149 23.7003 27.8035C23.8707 27.5263 23.9997 27.1039 23.9997 26.6666C23.9997 26.2293 23.8707 25.8069 23.7003 25.5297C23.6318 25.4183 23.5789 25.3609 23.5478 25.3333ZM23.5162 28.0226C23.5161 28.0222 23.5193 28.0201 23.5261 28.0172C23.5197 28.0215 23.5163 28.023 23.5162 28.0226ZM8.48318 28.0226C8.48309 28.023 8.4797 28.0215 8.47329 28.0172C8.48007 28.0201 8.48327 28.0222 8.48318 28.0226ZM16.0036 10.9927L17.049 12.3263C17.3846 12.7544 17.712 13.1505 18.0244 13.5283L18.0352 13.5414C18.3384 13.9082 18.636 14.2682 18.8922 14.6024C19.1485 14.9368 19.3983 15.29 19.5871 15.6448C19.7692 15.9869 19.958 16.4452 19.958 16.9674C19.958 18.0218 19.5462 19.0373 18.8064 19.7895C18.0659 20.5425 17.0567 20.9696 15.9997 20.9696C14.9427 20.9696 13.9335 20.5425 13.1929 19.7895C12.4531 19.0373 12.0413 18.0218 12.0413 16.9674C12.0413 16.4451 12.2253 15.9858 12.4099 15.6359C12.5997 15.2763 12.8508 14.921 13.1082 14.586C13.3684 14.2475 13.6708 13.8842 13.978 13.5153L13.9895 13.5015C14.2988 13.1301 14.622 12.742 14.9533 12.3225L16.0036 10.9927ZM14.7087 17.0109C14.7195 17.356 14.8592 17.6808 15.0941 17.9196C15.3381 18.1677 15.6643 18.3029 15.9997 18.3029C16.335 18.3029 16.6612 18.1677 16.9052 17.9196C17.1381 17.6828 17.2774 17.3615 17.2904 17.0197C17.282 16.9977 17.2652 16.9579 17.2332 16.8978C17.1472 16.7363 17.0016 16.5194 16.7756 16.2245C16.5587 15.9415 16.2998 15.6275 15.9957 15.2596C15.6939 15.622 15.4375 15.9314 15.2227 16.2108C14.9978 16.5035 14.8535 16.7192 14.7684 16.8804C14.7331 16.9473 14.7162 16.9897 14.7087 17.0109Z" fill="#1D2126"/>
</svg>
