<svg width="32" height="32" viewBox="0 0 32 32" fill="none" xmlns="http://www.w3.org/2000/svg">
<path d="M10.667 8.00004V13.332H14.667V8.00004H17.3337V13.332H21.3337V8.00004H24.0003V13.332L25.3337 13.3334C26.3539 13.3333 27.3357 13.7231 28.078 14.4231C28.8203 15.123 29.2671 16.0802 29.327 17.0987L29.3337 17.3334V18.6667C29.3337 20.0187 28.831 21.2534 28.0017 22.1934L28.0003 28C28.0003 28.3537 27.8598 28.6928 27.6098 28.9429C27.3598 29.1929 27.0206 29.3334 26.667 29.3334H5.33366C4.98004 29.3334 4.6409 29.1929 4.39085 28.9429C4.1408 28.6928 4.00033 28.3537 4.00033 28V22.1867C3.28388 21.3704 2.83198 20.356 2.70433 19.2774L2.67499 18.94L2.66699 18.6667V17.3334C2.66694 16.3131 3.05676 15.3314 3.7567 14.589C4.45665 13.8467 5.4138 13.3999 6.43233 13.34L6.66699 13.3334L8.00033 13.332V8.00004H10.667ZM12.003 22.188L11.931 22.272C11.057 23.2263 9.86543 23.8296 8.57899 23.9694L8.27233 23.9934L8.00033 24C7.54033 24 7.09366 23.9414 6.66699 23.832V26.6667H25.3337V23.832C24.4608 24.0564 23.5454 24.0564 22.6726 23.8319C21.7998 23.6074 20.9979 23.1657 20.3417 22.548L20.1417 22.348L20.0003 22.192L19.8577 22.3494C18.9931 23.2571 17.8357 23.8304 16.5897 23.968L16.267 23.9947L16.0003 24C14.6049 24.0021 13.265 23.454 12.271 22.4747L12.071 22.2654L12.003 22.188ZM25.3337 16H6.66699C6.34041 16.0001 6.02521 16.12 5.78116 16.337C5.53712 16.554 5.3812 16.853 5.34299 17.1774L5.33366 17.3334V18.628L5.33766 18.824C5.37779 19.503 5.67581 20.1409 6.17077 20.6074C6.66572 21.0738 7.32021 21.3335 8.00033 21.3334C8.63893 21.3345 9.25671 21.1063 9.74123 20.6903C10.2258 20.2743 10.5448 19.6981 10.6403 19.0667L10.6603 18.8627L10.667 18.628C10.715 16.964 13.103 16.904 13.319 18.4494L13.3323 18.628L13.3377 18.824C13.375 19.5013 13.6689 20.1389 14.1597 20.607C14.6506 21.0752 15.3013 21.3387 15.9796 21.344C16.6578 21.3493 17.3126 21.0959 17.8107 20.6354C18.3087 20.1749 18.6125 19.542 18.6603 18.8654L18.6763 18.4894C18.8417 16.948 21.159 16.948 21.3243 18.4894L21.3403 18.8654C21.388 19.5383 21.689 20.1682 22.1826 20.628C22.6762 21.0879 23.3257 21.3436 24.0003 21.3436C24.6749 21.3436 25.3245 21.0879 25.8181 20.628C26.3117 20.1682 26.6127 19.5383 26.6603 18.8654L26.667 18.6667V17.3334C26.6669 17.0068 26.547 16.6916 26.33 16.4475C26.113 16.2035 25.814 16.0476 25.4897 16.0094L25.3337 16ZM9.33366 1.33337C11.0937 2.49471 11.551 4.11737 11.2657 5.18404C11.1285 5.69644 10.7933 6.13335 10.334 6.39865C9.87464 6.66395 9.32872 6.73591 8.81633 6.59871C8.30393 6.4615 7.86702 6.12637 7.60172 5.66703C7.33642 5.20769 7.26445 4.66177 7.40166 4.14937C7.80033 2.66937 9.33366 3.33337 9.33366 1.33337ZM16.0003 1.33337C17.7603 2.49471 18.2177 4.11737 17.9323 5.18404C17.7951 5.69644 17.46 6.13335 17.0006 6.39865C16.5413 6.66395 15.9954 6.73591 15.483 6.59871C14.9706 6.4615 14.5337 6.12637 14.2684 5.66703C14.0031 5.20769 13.9311 4.66177 14.0683 4.14937C14.467 2.66937 16.0003 3.33337 16.0003 1.33337ZM22.667 1.33337C24.427 2.49471 24.8843 4.11737 24.599 5.18404C24.4618 5.69644 24.1266 6.13335 23.6673 6.39865C23.208 6.66395 22.6621 6.73591 22.1497 6.59871C21.6373 6.4615 21.2004 6.12637 20.9351 5.66703C20.6698 5.20769 20.5978 4.66177 20.735 4.14937C21.1337 2.66937 22.667 3.33337 22.667 1.33337Z" fill="#1D2126"/>
</svg>
