<svg width="32" height="32" viewBox="0 0 32 32" fill="none" xmlns="http://www.w3.org/2000/svg">
<path d="M22.666 4.00004H27.9993C28.353 4.00004 28.6921 4.14052 28.9422 4.39056C29.1922 4.64061 29.3327 4.97975 29.3327 5.33337V26.6667C29.3327 27.0203 29.1922 27.3595 28.9422 27.6095C28.6921 27.8596 28.353 28 27.9993 28H3.99935C3.64573 28 3.30659 27.8596 3.05654 27.6095C2.80649 27.3595 2.66602 27.0203 2.66602 26.6667V5.33337C2.66602 4.97975 2.80649 4.64061 3.05654 4.39056C3.30659 4.14052 3.64573 4.00004 3.99935 4.00004H9.33268V1.33337H11.9993V4.00004H19.9993V1.33337H22.666V4.00004ZM26.666 14.6667H5.33268V25.3334H26.666V14.6667ZM19.9993 6.66671H11.9993V9.33337H9.33268V6.66671H5.33268V12H26.666V6.66671H22.666V9.33337H19.9993V6.66671ZM7.99935 17.3334H10.666V20H7.99935V17.3334ZM14.666 17.3334H17.3327V20H14.666V17.3334ZM21.3327 17.3334H23.9993V20H21.3327V17.3334Z" fill="#1D2126"/>
</svg>
