<svg width="32" height="32" viewBox="0 0 32 32" fill="none" xmlns="http://www.w3.org/2000/svg">
<path d="M9.72119 27.7652L2.66652 29.3332L4.23452 22.2785C3.20189 20.347 2.66322 18.19 2.66652 15.9998C2.66652 8.63584 8.63585 2.6665 15.9999 2.6665C23.3639 2.6665 29.3332 8.63584 29.3332 15.9998C29.3332 23.3638 23.3639 29.3332 15.9999 29.3332C13.8097 29.3365 11.6527 28.7978 9.72119 27.7652ZM10.1079 24.9478L10.9785 25.4145C12.5233 26.24 14.2484 26.6702 15.9999 26.6665C18.1095 26.6665 20.1718 26.0409 21.9259 24.8688C23.6801 23.6968 25.0472 22.0309 25.8546 20.0818C26.6619 18.1327 26.8731 15.988 26.4616 13.9189C26.05 11.8497 25.0341 9.94913 23.5423 8.45737C22.0506 6.96561 20.1499 5.9497 18.0808 5.53813C16.0117 5.12655 13.867 5.33779 11.9179 6.14512C9.96882 6.95246 8.30291 8.31963 7.13084 10.0738C5.95877 11.8279 5.33319 13.8902 5.33319 15.9998C5.33319 17.7785 5.76652 19.4905 6.58652 21.0212L7.05185 21.8918L6.17852 25.8212L10.1079 24.9478Z" fill="#1D2126"/>
</svg>
