<svg width="32" height="32" viewBox="0 0 32 32" fill="none" xmlns="http://www.w3.org/2000/svg">
<path d="M12.4564 25.0426L9.88169 24.3519L10.931 20.4332C9.36032 19.8539 7.90052 19.0097 6.61503 17.9372L3.74436 20.8092L1.85769 18.9226L4.72969 16.0519C3.10846 14.1102 2.01914 11.7809 1.56836 9.2919L4.19236 8.81323C5.20436 14.4159 10.1057 18.6666 16.0004 18.6666C21.8937 18.6666 26.7964 14.4159 27.8084 8.81323L30.4324 9.29057C29.9822 11.7799 28.8933 14.1097 27.2724 16.0519L30.143 18.9226L28.2564 20.8092L25.3857 17.9372C24.1002 19.0097 22.6404 19.8539 21.0697 20.4332L22.119 24.3532L19.5444 25.0426L18.4937 21.1226C16.8435 21.4053 15.1572 21.4053 13.507 21.1226L12.4564 25.0426Z" fill="#1D2126"/>
</svg>
