<svg width="32" height="32" viewBox="0 0 32 32" fill="none" xmlns="http://www.w3.org/2000/svg">
<path d="M18.6673 30.0001L14.934 25.3334H8.00065C7.64703 25.3334 7.30789 25.1929 7.05784 24.9429C6.80779 24.6928 6.66732 24.3537 6.66732 24.0001V9.47075C6.66732 9.11713 6.80779 8.77799 7.05784 8.52794C7.30789 8.27789 7.64703 8.13741 8.00065 8.13741H29.334C29.6876 8.13741 30.0267 8.27789 30.2768 8.52794C30.5268 8.77799 30.6673 9.11713 30.6673 9.47075V24.0001C30.6673 24.3537 30.5268 24.6928 30.2768 24.9429C30.0267 25.1929 29.6876 25.3334 29.334 25.3334H22.4006L18.6673 30.0001ZM21.1193 22.6667H28.0006V10.8041H9.33398V22.6667H16.2153L18.6673 25.7307L21.1193 22.6667ZM2.66732 2.66675H25.334V5.33341H4.00065V20.0001H1.33398V4.00008C1.33398 3.64646 1.47446 3.30732 1.72451 3.05727C1.97456 2.80722 2.3137 2.66675 2.66732 2.66675Z" fill="#1D2126"/>
</svg>
