<svg width="32" height="32" viewBox="0 0 32 32" fill="none" xmlns="http://www.w3.org/2000/svg">
<path fill-rule="evenodd" clip-rule="evenodd" d="M1.33304 27.9916V10.6676L9.33704 2.6676H22.6637C23.401 2.6676 23.9997 3.27427 23.9997 3.99027V8.11155C27.7833 8.74632 30.6664 12.0369 30.6664 16.0009C30.6664 19.9649 27.7833 23.2556 23.9997 23.8903V28.0116C23.9994 28.3625 23.8597 28.6989 23.6114 28.9469C23.3632 29.195 23.0266 29.3343 22.6757 29.3343H2.65704C2.48194 29.333 2.3088 29.2973 2.1475 29.2292C1.9862 29.1611 1.8399 29.0618 1.71696 28.9372C1.59401 28.8125 1.49683 28.6648 1.43095 28.5026C1.36508 28.3403 1.33181 28.1667 1.33304 27.9916ZM21.333 5.33427V8.11155C17.5494 8.74632 14.6664 12.0369 14.6664 16.0009C14.6664 19.9649 17.5494 23.2556 21.333 23.8903V26.6676H3.99971V12.0009H10.6664V5.33427H21.333ZM27.9997 16.0009C27.9997 13.0554 25.6119 10.6676 22.6664 10.6676C19.7209 10.6676 17.333 13.0554 17.333 16.0009C17.333 18.9465 19.7209 21.3343 22.6664 21.3343C25.6119 21.3343 27.9997 18.9465 27.9997 16.0009ZM21.333 12.6676V14.6676H19.333V17.3343H21.333V19.3343H23.9997V17.3343H25.9997V14.6676H23.9997V12.6676H21.333Z" fill="#1D2126"/>
</svg>
