<svg width="32" height="32" viewBox="0 0 32 32" fill="none" xmlns="http://www.w3.org/2000/svg">
<path d="M16.0001 30.6667C18.6523 30.6667 21.1958 29.6131 23.0712 27.7377C24.9466 25.8624 26.0001 23.3188 26.0001 20.6667C26.0001 19.512 25.6935 18.404 25.3335 17.3733C23.1108 19.5693 21.4228 20.6667 20.2668 20.6667C25.5935 11.3333 22.6668 7.33333 14.6668 2C15.3335 8.66667 10.9388 11.6987 9.14946 13.3827C7.68989 14.7556 6.67644 16.5353 6.2405 18.4911C5.80456 20.4469 5.96625 22.4886 6.70459 24.3514C7.44293 26.2142 8.72387 27.8122 10.3813 28.9383C12.0388 30.0643 13.9963 30.6665 16.0001 30.6667ZM16.9468 6.98C21.2681 10.6467 21.2895 13.496 17.9508 19.3453C16.9361 21.1227 18.2201 23.3333 20.2668 23.3333C21.1841 23.3333 22.1121 23.0667 23.0921 22.54C22.8016 23.6373 22.2604 24.6522 21.511 25.5048C20.7616 26.3573 19.8245 27.0243 18.7736 27.4532C17.7226 27.882 16.5864 28.061 15.4545 27.9761C14.3225 27.8912 13.2258 27.5447 12.2505 26.9639C11.2753 26.383 10.4482 25.5837 9.83437 24.6289C9.22055 23.6741 8.83676 22.5898 8.71322 21.4615C8.58968 20.3331 8.72976 19.1915 9.12244 18.1264C9.51512 17.0614 10.1497 16.1021 10.9761 15.324C11.1441 15.1667 11.9961 14.4107 12.0335 14.3773C12.5988 13.8707 13.0641 13.4213 13.5241 12.9293C15.1641 11.172 16.3428 9.22267 16.9455 6.98H16.9468Z" fill="#1D2126"/>
</svg>
