<svg width="32" height="32" viewBox="0 0 32 32" fill="none" xmlns="http://www.w3.org/2000/svg">
<path d="M20.0007 2.66663C20.937 2.66652 21.8569 2.91294 22.6679 3.38112C23.4788 3.8493 24.1522 4.52272 24.6203 5.33369C25.0884 6.14466 25.3348 7.06458 25.3346 8.00096C25.3344 8.93734 25.0877 9.85717 24.6193 10.668L30.6673 10.6666V13.3333H28.0007V26.6666C28.0007 27.0203 27.8602 27.3594 27.6101 27.6094C27.3601 27.8595 27.0209 28 26.6673 28H5.33398C4.98036 28 4.64122 27.8595 4.39118 27.6094C4.14113 27.3594 4.00065 27.0203 4.00065 26.6666V13.3333H1.33398V10.6666L7.38198 10.668C6.72047 9.52248 6.50824 8.17204 6.78649 6.87887C7.06475 5.58569 7.81365 4.44206 8.88776 3.67004C9.96188 2.89802 11.2846 2.5527 12.599 2.70114C13.9134 2.84958 15.1258 3.48118 16.0007 4.4733C16.5001 3.90448 17.1154 3.449 17.8053 3.1374C18.4952 2.82581 19.2437 2.6653 20.0007 2.66663ZM14.6673 13.3333H6.66732V25.3333H14.6673V13.3333ZM25.334 13.3333H17.334V25.3333H25.334V13.3333ZM12.0007 5.3333C11.3087 5.3302 10.6426 5.59622 10.1431 6.07514C9.64364 6.55406 9.34989 7.20839 9.32393 7.89989C9.29797 8.59138 9.54182 9.2659 10.004 9.78092C10.4661 10.296 11.1104 10.6112 11.8007 10.66L12.0007 10.6666H14.6673V7.99997C14.6673 7.36272 14.4392 6.74652 14.0241 6.26298C13.609 5.77943 13.0345 5.46051 12.4047 5.36397L12.1993 5.33997L12.0007 5.3333ZM20.0007 5.3333C19.3279 5.33309 18.6799 5.58718 18.1866 6.04463C17.6933 6.50208 17.3911 7.12909 17.3407 7.79997L17.334 7.99997V10.6666H20.0007C20.6734 10.6668 21.3214 10.4128 21.8147 9.95531C22.308 9.49785 22.6102 8.87084 22.6607 8.19997L22.6673 7.99997C22.6673 7.29272 22.3864 6.61445 21.8863 6.11435C21.3862 5.61425 20.7079 5.3333 20.0007 5.3333Z" fill="#1D2126"/>
</svg>
