<svg width="32" height="32" viewBox="0 0 32 32" fill="none" xmlns="http://www.w3.org/2000/svg">
<path d="M21.9997 4C26.0503 4 29.333 7.33333 29.333 12C29.333 21.3333 19.333 26.6667 15.9997 28.6667C13.3637 27.0853 6.55567 23.4173 3.82501 17.3347L1.33301 17.3333V14.6667H2.94634C2.76501 13.8187 2.66634 12.9307 2.66634 12C2.66634 7.33333 5.99967 4 9.99967 4C12.4797 4 14.6663 5.33333 15.9997 6.66667C17.333 5.33333 19.5197 4 21.9997 4ZM21.9997 6.66667C20.565 6.66667 19.013 7.42667 17.885 8.552L15.9997 10.4373L14.1143 8.552C12.9863 7.42667 11.4343 6.66667 9.99967 6.66667C7.41301 6.66667 5.33301 8.87467 5.33301 12C5.33301 12.9133 5.45301 13.8027 5.68901 14.6667H8.57834L11.333 10.0747L15.333 16.7413L16.5783 14.6667H22.6663V17.3333H18.0877L15.333 21.9253L11.333 15.2587L10.0877 17.3333H6.81034C7.86367 19.1653 9.45701 20.8907 11.5263 22.5373C12.5197 23.3267 13.5797 24.064 14.7543 24.804C15.153 25.056 15.5477 25.2973 15.9997 25.5667C16.4517 25.2973 16.8463 25.056 17.245 24.8053C18.4197 24.064 19.4797 23.3267 20.4717 22.5373C24.4463 19.3773 26.6663 15.924 26.6663 12C26.6663 8.85333 24.617 6.66667 21.9997 6.66667Z" fill="#1D2126"/>
</svg>
