<svg width="32" height="32" viewBox="0 0 32 32" fill="none" xmlns="http://www.w3.org/2000/svg">
<path d="M25.334 28H6.66732C6.3137 28 5.97456 27.8595 5.72451 27.6095C5.47446 27.3594 5.33398 27.0203 5.33398 26.6667V14.6667H1.33398L15.1033 2.14933C15.3488 1.92597 15.6688 1.80219 16.0007 1.80219C16.3325 1.80219 16.6525 1.92597 16.898 2.14933L30.6673 14.6667H26.6673V26.6667C26.6673 27.0203 26.5268 27.3594 26.2768 27.6095C26.0267 27.8595 25.6876 28 25.334 28ZM8.00065 25.3333H24.0007V12.2093L16.0007 4.93733L8.00065 12.2093V25.3333ZM10.6673 20H21.334V22.6667H10.6673V20Z" fill="#1D2126"/>
</svg>
