<svg width="32" height="32" viewBox="0 0 32 32" fill="none" xmlns="http://www.w3.org/2000/svg">
<path d="M19.612 21.8052V31.337C19.612 31.388 19.5795 31.436 19.5293 31.454C18.685 31.7389 17.8052 31.9249 16.9018 31.9969C16.8339 32.0029 16.7719 31.9459 16.7719 31.8739V28.1907H15.2515V31.8769C15.2515 31.9459 15.1924 32.0029 15.1216 31.9999C14.2182 31.9309 13.3413 31.7449 12.497 31.463C12.4468 31.448 12.4143 31.4 12.4143 31.346V21.8052C12.4143 21.7752 12.4261 21.7452 12.4438 21.7212C12.4645 21.6972 12.494 21.6852 12.5236 21.6792C13.3738 21.5832 14.2418 21.5202 15.1304 21.4932C15.1452 21.4932 15.1629 21.4962 15.1777 21.5022C15.1924 21.5082 15.2042 21.5172 15.216 21.5292C15.2278 21.5412 15.2397 21.5562 15.2456 21.5712C15.2515 21.5892 15.2544 21.6042 15.2544 21.6222V25.1914H16.7689V21.6192C16.7689 21.6012 16.7719 21.5862 16.7778 21.5682C16.7837 21.5532 16.7926 21.5412 16.8044 21.5292C16.8162 21.5172 16.8309 21.5082 16.8457 21.5022C16.8605 21.4962 16.8752 21.4932 16.8929 21.4932C17.7757 21.5172 18.6495 21.5832 19.4998 21.6792C19.5293 21.6852 19.5559 21.7002 19.5766 21.7212C19.6031 21.7452 19.612 21.7752 19.612 21.8052Z" fill="white"/>
<path d="M11.756 21.925V31.0009C11.756 31.0879 11.6674 31.1479 11.5906 31.1119C10.6636 30.71 9.78385 30.1851 8.96311 29.5523C8.93359 29.5283 8.91588 29.4923 8.91588 29.4563V27.4107H8.72398L8.13942 28.6495C8.104 28.7214 8.00952 28.7424 7.95048 28.6855C6.60128 27.4107 5.45875 25.8211 4.59668 24.0095V24.0065C5.32589 23.6136 6.07873 23.2777 6.85223 22.9927C6.86994 22.9867 6.89061 22.9837 6.90832 22.9867C6.92899 22.9897 6.9467 22.9957 6.96146 23.0077C6.97918 23.0197 6.99098 23.0347 6.99984 23.0527C7.0087 23.0707 7.0146 23.0917 7.0146 23.1127V25.1882H7.21536L8.4317 22.5188C8.44056 22.5008 8.44941 22.4858 8.46417 22.4768C8.47598 22.4648 8.4937 22.4559 8.50846 22.4499C9.5329 22.1679 10.5692 21.952 11.6172 21.799C11.632 21.796 11.6497 21.796 11.6645 21.802C11.6822 21.808 11.6999 21.814 11.7117 21.826C11.7265 21.838 11.7383 21.853 11.7442 21.871C11.753 21.889 11.756 21.907 11.756 21.925Z" fill="white"/>
<path d="M26.5381 23.9136L25.6613 25.8301C25.806 25.9141 25.9447 26.0101 26.0746 26.1151C26.1248 26.1541 26.1337 26.229 26.0982 26.28C25.5668 27.0539 24.9734 27.7677 24.3328 28.4066C24.2944 28.4455 24.2353 28.4515 24.1911 28.4245C24.0907 28.3676 23.9874 28.3166 23.8781 28.2806C23.6419 28.1996 23.3939 28.1666 23.143 28.1876V29.4053C23.143 29.4443 23.1253 29.4803 23.0958 29.5013C22.278 30.1432 21.3982 30.674 20.4712 31.085C20.3944 31.1209 20.3058 31.061 20.3058 30.974V21.934C20.3058 21.916 20.3088 21.898 20.3147 21.88C20.3236 21.862 20.3354 21.847 20.3472 21.835C20.3619 21.823 20.3797 21.817 20.3944 21.811C20.4121 21.805 20.4298 21.805 20.4476 21.808C21.351 21.946 22.2219 22.123 23.0603 22.3389C23.0869 22.3449 23.1076 22.3599 23.1253 22.3839C23.14 22.4049 23.1489 22.4319 23.1489 22.4619L23.1666 25.1943H23.3792C23.3792 25.1943 24.2708 23.2837 24.4833 22.8218C24.4951 22.7948 24.5188 22.7738 24.5453 22.7648C24.5719 22.7528 24.6014 22.7498 24.628 22.7588C25.2745 23.0348 25.9004 23.3647 26.4968 23.7456H26.4909C26.5175 23.7636 26.5352 23.7906 26.544 23.8206C26.5529 23.8506 26.5529 23.8836 26.5381 23.9136Z" fill="white"/>
<path d="M20.4625 0.851808C20.5452 0.8878 20.557 1.00177 20.4862 1.05576C16.9523 3.87513 16.8342 11.2085 16.4829 20.1945H16.1611C16.3175 8.57807 16.3293 3.87813 17.4158 0C18.4727 0.137969 19.4942 0.428904 20.4625 0.851808Z" fill="white"/>
<path d="M25.2835 4.58003C25.3455 4.65501 25.2953 4.76599 25.2008 4.77499C22.098 5.05392 19.9871 7.20144 18.6615 11.3975C17.9411 13.671 17.3034 17.3632 17.1234 20.2185L16.8075 20.2065C16.9669 16.6463 17.2355 13.623 17.6016 11.1815C18.3545 6.14268 19.6889 3.30831 22.6382 2.09059C23.6066 2.78643 24.4952 3.62024 25.2835 4.58003Z" fill="white"/>
<path d="M28.5076 10.9295C28.5371 11.0375 28.4102 11.1275 28.3216 11.0585C25.7797 9.07893 21.7262 10.0057 19.3496 14.8256L19.3467 14.8316C18.4078 16.7272 18.086 17.9779 17.7701 20.2544L17.4454 20.2394C18.089 12.2012 21.3572 5.57572 26.7421 6.67647C27.492 7.96318 28.0913 9.39686 28.5076 10.9295Z" fill="white"/>
<path d="M29.1689 15.9716C29.1689 17.2673 29.042 18.524 28.8058 19.7327C28.7822 19.8557 28.608 19.8617 28.5785 19.7387C27.926 17.1263 24.9176 15.0598 21.8916 16.0166C20.4892 16.4605 18.9895 17.7802 18.4138 20.2876L18.0861 20.2666C18.3813 18.1821 19.1814 16.2085 20.4125 14.5349C23.0577 11.0167 26.8809 11.5236 29.0656 13.944C29.1335 14.6069 29.1689 15.2847 29.1689 15.9716Z" fill="white"/>
<path d="M15.8393 20.2065H15.5175C15.1632 11.2115 15.0451 3.87813 11.5142 1.05876C11.4433 1.00177 11.4551 0.8908 11.5378 0.854808C12.5061 0.425904 13.5276 0.13497 14.5846 0C15.6739 3.87813 15.6828 8.57807 15.8393 20.2065Z" fill="white"/>
<path d="M15.1929 20.2094C15.0866 20.2124 14.9803 20.2214 14.874 20.2214C14.6939 17.3631 14.0592 13.6739 13.3388 11.4004C12.0133 7.20737 9.89943 5.05385 6.79658 4.78091C6.70211 4.77192 6.65192 4.66094 6.71392 4.58596C7.50218 3.62617 8.39081 2.78636 9.35916 2.09652C12.3026 3.31424 13.6429 6.14861 14.3987 11.1875C14.7618 13.6229 15.0305 16.6492 15.1929 20.2094Z" fill="white"/>
<path d="M14.555 20.2275L14.2303 20.2425C13.9085 17.972 13.5867 16.7153 12.6479 14.8197C10.2742 10.0118 6.22663 9.08499 3.67881 11.0466C3.59024 11.1155 3.46624 11.0256 3.49576 10.9176C3.91204 9.38193 4.5143 7.95425 5.26714 6.66454V6.66153C10.6462 5.56978 13.9114 12.1923 14.555 20.2275Z" fill="white"/>
<path d="M13.9144 20.2663L13.5838 20.2873C13.0051 17.7799 11.529 16.3852 10.1089 16.0223C6.86437 15.1825 4.10398 17.189 3.43086 19.7654C3.39838 19.8884 3.22715 19.8884 3.20058 19.7624C2.95849 18.5477 2.83154 17.279 2.83154 15.9713C2.83154 15.2844 2.86697 14.6066 2.93783 13.9408V13.9378C5.12547 11.5203 8.94278 11.0194 11.5851 14.5346C12.8191 16.2082 13.6192 18.1788 13.9144 20.2663Z" fill="white"/>
</svg>
