<svg width="32" height="32" viewBox="0 0 32 32" fill="none" xmlns="http://www.w3.org/2000/svg">
<path d="M6.66683 29.3333C6.31321 29.3333 5.97407 29.1928 5.72402 28.9428C5.47397 28.6927 5.3335 28.3536 5.3335 28V3.99996C5.3335 3.64634 5.47397 3.3072 5.72402 3.05715C5.97407 2.8071 6.31321 2.66663 6.66683 2.66663H25.3335C25.6871 2.66663 26.0263 2.8071 26.2763 3.05715C26.5264 3.3072 26.6668 3.64634 26.6668 3.99996V7.99996H24.0002V5.33329H8.00016V26.6666H24.0002V24H26.6668V28C26.6668 28.3536 26.5264 28.6927 26.2763 28.9428C26.0263 29.1928 25.6871 29.3333 25.3335 29.3333H6.66683ZM24.0002 21.3333V17.3333H14.6668V14.6666H24.0002V10.6666L30.6668 16L24.0002 21.3333Z" fill="#1D2126"/>
</svg>
