<svg width="32" height="32" viewBox="0 0 32 32" fill="none" xmlns="http://www.w3.org/2000/svg">
<path d="M13.3335 9.62661L8.80416 13.3333H4.00016V18.6666H8.80416L13.3335 22.3733V9.62661ZM7.85216 21.3333H2.66683C2.31321 21.3333 1.97407 21.1928 1.72402 20.9428C1.47397 20.6927 1.3335 20.3536 1.3335 19.9999V11.9999C1.3335 11.6463 1.47397 11.3072 1.72402 11.0571C1.97407 10.8071 2.31321 10.6666 2.66683 10.6666H7.85216L14.9108 4.89061C15.0085 4.81054 15.1269 4.75986 15.2523 4.74447C15.3776 4.72908 15.5048 4.74961 15.6189 4.80368C15.733 4.85774 15.8295 4.94311 15.897 5.04986C15.9645 5.1566 16.0002 5.28032 16.0002 5.40661V26.5933C16.0002 26.7196 15.9645 26.8433 15.897 26.95C15.8295 27.0568 15.733 27.1422 15.6189 27.1962C15.5048 27.2503 15.3776 27.2708 15.2523 27.2554C15.1269 27.24 15.0085 27.1894 14.9108 27.1093L7.8535 21.3333H7.85216ZM27.2188 15.9999L31.9335 20.7146L30.0482 22.5999L25.3335 17.8853L20.6188 22.5999L18.7335 20.7146L23.4482 15.9999L18.7335 11.2853L20.6188 9.39995L25.3335 14.1146L30.0482 9.39995L31.9335 11.2853L27.2188 15.9999Z" fill="#1D2126"/>
</svg>
