<svg viewBox="0 0 26 26" xmlns="http://www.w3.org/2000/svg">
<path d="M22.3005 0.309495C22.691 -0.0810294 23.3242 -0.0810296 23.7147 0.309495L25.1289 1.72371C25.5194 2.11423 25.5194 2.7474 25.1289 3.13792L10.4937 17.7731C10.3541 17.9127 10.1763 18.0078 9.98275 18.0465L6.74411 18.6943L7.39184 15.4556C7.43056 15.262 7.52571 15.0842 7.66531 14.9446L22.3005 0.309495Z" />
<path d="M16.7649 3.01669H2.19458L2.19458 23.0167H22.1946V8.90073L24.1946 6.90073V23.0167C24.1946 24.1213 23.2991 25.0167 22.1946 25.0167H2.19458C1.09001 25.0167 0.19458 24.1213 0.19458 23.0167V3.01669C0.19458 1.91212 1.09001 1.01669 2.19458 1.01669H18.7649L16.7649 3.01669Z" />
</svg>
