<svg width="32" height="32" viewBox="0 0 32 32" fill="none" xmlns="http://www.w3.org/2000/svg">
<path d="M6.66667 10.6666V26.6666H25.3333V10.6666H6.66667ZM6.66667 7.99996H25.3333V5.33329H6.66667V7.99996ZM26.6667 29.3333H5.33333C4.97971 29.3333 4.64057 29.1928 4.39052 28.9428C4.14048 28.6927 4 28.3536 4 28V3.99996C4 3.64634 4.14048 3.3072 4.39052 3.05715C4.64057 2.8071 4.97971 2.66663 5.33333 2.66663H26.6667C27.0203 2.66663 27.3594 2.8071 27.6095 3.05715C27.8595 3.3072 28 3.64634 28 3.99996V28C28 28.3536 27.8595 28.6927 27.6095 28.9428C27.3594 29.1928 27.0203 29.3333 26.6667 29.3333ZM9.33333 13.3333H14.6667V18.6666H9.33333V13.3333ZM9.33333 21.3333H22.6667V24H9.33333V21.3333ZM17.3333 14.6666H22.6667V17.3333H17.3333V14.6666Z" fill="#1D2126"/>
</svg>
