<svg width="32" height="32" viewBox="0 0 32 32" fill="none" xmlns="http://www.w3.org/2000/svg">
<path d="M13.1038 6.66667L10.4372 9.33333H5.33317V25.3333H26.6665V9.33333H21.5625L18.8958 6.66667H13.1038ZM11.9998 4H19.9998L22.6665 6.66667H27.9998C28.3535 6.66667 28.6926 6.80714 28.9426 7.05719C29.1927 7.30724 29.3332 7.64638 29.3332 8V26.6667C29.3332 27.0203 29.1927 27.3594 28.9426 27.6095C28.6926 27.8595 28.3535 28 27.9998 28H3.99984C3.64622 28 3.30708 27.8595 3.05703 27.6095C2.80698 27.3594 2.6665 27.0203 2.6665 26.6667V8C2.6665 7.64638 2.80698 7.30724 3.05703 7.05719C3.30708 6.80714 3.64622 6.66667 3.99984 6.66667H9.33317L11.9998 4ZM15.9998 24C14.0549 24 12.1897 23.2274 10.8144 21.8521C9.43912 20.4769 8.6665 18.6116 8.6665 16.6667C8.6665 14.7217 9.43912 12.8565 10.8144 11.4812C12.1897 10.1059 14.0549 9.33333 15.9998 9.33333C17.9448 9.33333 19.81 10.1059 21.1853 11.4812C22.5606 12.8565 23.3332 14.7217 23.3332 16.6667C23.3332 18.6116 22.5606 20.4769 21.1853 21.8521C19.81 23.2274 17.9448 24 15.9998 24ZM15.9998 21.3333C17.2375 21.3333 18.4245 20.8417 19.2997 19.9665C20.1748 19.0913 20.6665 17.9043 20.6665 16.6667C20.6665 15.429 20.1748 14.242 19.2997 13.3668C18.4245 12.4917 17.2375 12 15.9998 12C14.7622 12 13.5752 12.4917 12.7 13.3668C11.8248 14.242 11.3332 15.429 11.3332 16.6667C11.3332 17.9043 11.8248 19.0913 12.7 19.9665C13.5752 20.8417 14.7622 21.3333 15.9998 21.3333Z" fill="#1D2126"/>
</svg>
