<svg width="30" height="32" viewBox="0 0 30 32" fill="none" xmlns="http://www.w3.org/2000/svg">
    <path fill-rule="evenodd" clip-rule="evenodd" d="M6.07143 25.6108V25.6145L6.07146 25.6205L6.07143 25.6108Z" fill="#1D2126"/>
    <path fill-rule="evenodd" clip-rule="evenodd" d="M15 0.5C11.873 0.5 9.78571 3.28483 9.78571 5.99844V9.10663L9.12936 9.46482L1.91358 13.4026C1.02062 13.8252 0.499679 14.7526 0.5 15.6752V20.6727C0.5 21.4349 0.851079 22.1379 1.39153 22.5992C1.95881 23.0833 2.81033 23.3515 3.69948 23.036L3.75658 23.0157L6.82409 21.6395L9.78571 20.3108V22.0944L7.57143 23.3926C6.68663 23.9065 6.37314 24.3939 6.07146 25.6205L6.07143 25.6145V28.9894C6.07143 30.5542 7.4747 31.7283 9.01072 31.4679L9.11599 31.4501L15 29.5649L20.884 31.4501L20.9893 31.4679C22.4981 31.7237 23.9286 30.5687 23.9286 28.9894V25.6147C23.9322 24.7314 23.4621 23.8423 22.6331 23.3926L20.2143 22.0944V20.3055L26.2449 22.9962L26.3005 23.016C27.1866 23.3304 28.0336 23.057 28.5938 22.5861C29.1339 22.1323 29.5 21.4303 29.5 20.6527V15.6413L29.4998 15.628C29.4837 14.7208 28.9639 13.8177 28.0863 13.4025L20.2143 9.10663V5.99844C20.2143 3.28483 18.127 0.5 15 0.5ZM15 3.5C13.8488 3.5 12.7857 4.6037 12.7857 5.99844V10.8871L9.78571 12.5243L3.5 15.9545V19.8427L9.78571 17.0227L12.7857 15.6767V23.8891L9.07143 25.8825V28.3142L15 26.4147L20.9286 28.3142V25.8825L17.2143 23.8891V15.6819L26.5 19.825V15.9545L17.2143 10.8871V5.99844C17.2143 4.6037 16.1512 3.5 15 3.5Z" fill="#1D2126"/>
</svg>
