<svg width="32" height="32" viewBox="0 0 32 32" fill="none" xmlns="http://www.w3.org/2000/svg">
<path d="M24.0412 22.1558L29.7518 27.8652L27.8652 29.7518L22.1558 24.0412C20.0315 25.7441 17.3892 26.6704 14.6665 26.6665C8.0425 26.6665 2.6665 21.2905 2.6665 14.6665C2.6665 8.0425 8.0425 2.6665 14.6665 2.6665C21.2905 2.6665 26.6665 8.0425 26.6665 14.6665C26.6704 17.3892 25.7441 20.0315 24.0412 22.1558ZM21.3665 21.1665C23.0587 19.4264 24.0037 17.0937 23.9998 14.6665C23.9998 9.50917 19.8225 5.33317 14.6665 5.33317C9.50917 5.33317 5.33317 9.50917 5.33317 14.6665C5.33317 19.8225 9.50917 23.9998 14.6665 23.9998C17.0937 24.0037 19.4264 23.0587 21.1665 21.3665L21.3665 21.1665Z" fill="#1D2126"/>
</svg>
