<svg viewBox="0 0 16 17" xmlns="http://www.w3.org/2000/svg">
<path fill-rule="evenodd" clip-rule="evenodd" d="M12.5424 7.19052C12.5424 10.048 10.226 12.3644 7.36849 12.3644C4.51102 12.3644 2.19458 10.048 2.19458 7.19052C2.19458 4.33304 4.51102 2.0166 7.36849 2.0166C10.226 2.0166 12.5424 4.33304 12.5424 7.19052ZM11.3023 13.1907C10.1727 13.9328 8.82101 14.3644 7.36849 14.3644C3.40645 14.3644 0.19458 11.1526 0.19458 7.19052C0.19458 3.22847 3.40645 0.0166016 7.36849 0.0166016C11.3305 0.0166016 14.5424 3.22847 14.5424 7.19052C14.5424 8.97759 13.889 10.612 12.808 11.868L15.2495 14.3095C15.64 14.7 15.64 15.3332 15.2495 15.7237C14.859 16.1142 14.2258 16.1142 13.8353 15.7237L11.3023 13.1907Z" />
</svg>
