<svg width="32" height="32" viewBox="0 0 32 32" fill="none" xmlns="http://www.w3.org/2000/svg">
<path d="M4.988 1.87735L29.604 15.416C29.7085 15.4736 29.7957 15.5581 29.8564 15.6608C29.9171 15.7636 29.9491 15.8807 29.9491 16C29.9491 16.1193 29.9171 16.2365 29.8564 16.3392C29.7957 16.4419 29.7085 16.5265 29.604 16.584L4.988 30.1227C4.8865 30.1785 4.7722 30.2069 4.65636 30.2052C4.54053 30.2034 4.42716 30.1714 4.32744 30.1125C4.22771 30.0535 4.14506 29.9696 4.08764 29.869C4.03023 29.7684 4.00002 29.6545 4 29.5387V2.46135C4.00002 2.34551 4.03023 2.23166 4.08764 2.13105C4.14506 2.03043 4.22771 1.94651 4.32744 1.88756C4.42716 1.82861 4.54053 1.79667 4.65636 1.79488C4.7722 1.79309 4.8865 1.82151 4.988 1.87735ZM6.66667 17.3334V26.156L25.1333 16L6.66667 5.84402V14.6667H13.3333V17.3334H6.66667Z" fill="#1D2126"/>
</svg>
