<svg width="32" height="32" viewBox="0 0 32 32" fill="none" xmlns="http://www.w3.org/2000/svg">
<path d="M9.33317 5.33329V26.6666H22.6665V5.33329H9.33317ZM7.99984 2.66663H23.9998C24.3535 2.66663 24.6926 2.8071 24.9426 3.05715C25.1927 3.3072 25.3332 3.64634 25.3332 3.99996V28C25.3332 28.3536 25.1927 28.6927 24.9426 28.9428C24.6926 29.1928 24.3535 29.3333 23.9998 29.3333H7.99984C7.64622 29.3333 7.30708 29.1928 7.05703 28.9428C6.80698 28.6927 6.6665 28.3536 6.6665 28V3.99996C6.6665 3.64634 6.80698 3.3072 7.05703 3.05715C7.30708 2.8071 7.64622 2.66663 7.99984 2.66663ZM15.9998 22.6666C16.3535 22.6666 16.6926 22.8071 16.9426 23.0571C17.1927 23.3072 17.3332 23.6463 17.3332 24C17.3332 24.3536 17.1927 24.6927 16.9426 24.9428C16.6926 25.1928 16.3535 25.3333 15.9998 25.3333C15.6462 25.3333 15.3071 25.1928 15.057 24.9428C14.807 24.6927 14.6665 24.3536 14.6665 24C14.6665 23.6463 14.807 23.3072 15.057 23.0571C15.3071 22.8071 15.6462 22.6666 15.9998 22.6666Z" fill="#1D2126"/>
</svg>
