<svg width="32" height="32" viewBox="0 0 32 32" fill="none" xmlns="http://www.w3.org/2000/svg">
<path d="M13.334 9.62661L8.80465 13.3333H4.00065V18.6666H8.80465L13.334 22.3733V9.62661ZM7.85265 21.3333H2.66732C2.3137 21.3333 1.97456 21.1928 1.72451 20.9428C1.47446 20.6927 1.33398 20.3536 1.33398 19.9999V11.9999C1.33398 11.6463 1.47446 11.3072 1.72451 11.0571C1.97456 10.8071 2.3137 10.6666 2.66732 10.6666H7.85265L14.9113 4.89061C15.009 4.81054 15.1274 4.75986 15.2527 4.74447C15.3781 4.72908 15.5052 4.74961 15.6194 4.80368C15.7335 4.85774 15.8299 4.94311 15.8974 5.04986C15.9649 5.1566 16.0007 5.28032 16.0007 5.40661V26.5933C16.0007 26.7196 15.9649 26.8433 15.8974 26.95C15.8299 27.0568 15.7335 27.1422 15.6194 27.1962C15.5052 27.2503 15.3781 27.2708 15.2527 27.2554C15.1274 27.24 15.009 27.1894 14.9113 27.1093L7.85398 21.3333H7.85265ZM25.8753 26.8453L23.9873 24.9573C25.2513 23.8326 26.2625 22.4528 26.9543 20.9089C27.646 19.3649 28.0027 17.6918 28.0007 15.9999C28.0023 14.2214 27.6078 12.4648 26.8458 10.8578C26.0838 9.25074 24.9734 7.83359 23.5953 6.70928L25.4887 4.81595C27.1133 6.19134 28.4183 7.90459 29.3127 9.83621C30.2072 11.7678 30.6694 13.8713 30.6673 15.9999C30.6673 20.2973 28.8193 24.1626 25.8753 26.8453ZM21.1513 22.1213L19.2553 20.2253C19.9026 19.7275 20.4268 19.0876 20.7872 18.3549C21.1476 17.6222 21.3347 16.8165 21.334 15.9999C21.334 14.0933 20.334 12.4199 18.8273 11.4773L20.746 9.55861C21.7559 10.3015 22.5768 11.2717 23.1422 12.3908C23.7076 13.5098 24.0017 14.7462 24.0007 15.9999C24.0007 18.4559 22.894 20.6533 21.1513 22.1213Z" fill="#1D2126"/>
</svg>
