<svg width="32" height="32" viewBox="0 0 32 32" fill="none" xmlns="http://www.w3.org/2000/svg">
<path fill-rule="evenodd" clip-rule="evenodd" d="M17.4516 1V2.45161V5.83871V7.29032H14.5484V5.83871V2.45161V1H17.4516ZM16 19.871C18.1379 19.871 19.871 18.1379 19.871 16C19.871 13.8621 18.1379 12.129 16 12.129C13.8621 12.129 12.129 13.8621 12.129 16C12.129 18.1379 13.8621 19.871 16 19.871ZM16 22.7742C19.7413 22.7742 22.7742 19.7413 22.7742 16C22.7742 12.2587 19.7413 9.22581 16 9.22581C12.2587 9.22581 9.22581 12.2587 9.22581 16C9.22581 19.7413 12.2587 22.7742 16 22.7742ZM14.5484 29.5484V31H17.4516V29.5484V26.1613V24.7097H14.5484V26.1613V29.5484ZM31 17.4516H29.5484H26.1613H24.7097V14.5484H26.1613H29.5484H31V17.4516ZM2.45161 14.5484H1V17.4516H2.45161L5.83871 17.4516H7.29032V14.5484H5.83871H2.45161ZM25.5801 27.6331L24.5536 26.6066L22.1586 24.2116L21.1321 23.1852L23.185 21.1323L24.2115 22.1587L26.6065 24.5538L27.633 25.5802L25.5801 27.6331ZM7.44621 5.39344L6.41977 4.36699L4.36687 6.41988L5.39332 7.44633L7.78836 9.84137L8.8148 10.8678L10.8677 8.81492L9.84125 7.78848L7.44621 5.39344ZM4.36703 25.5802L5.39348 24.5538L7.78852 22.1587L8.81496 21.1323L10.8679 23.1852L9.84141 24.2116L7.44637 26.6066L6.41992 27.6331L4.36703 25.5802ZM26.6067 7.44633L27.6331 6.41988L25.5802 4.36699L24.5538 5.39344L22.1587 7.78848L21.1323 8.81492L23.1852 10.8678L24.2116 9.84137L26.6067 7.44633Z" fill="#1D2126"/>
</svg>
