<svg width="30" height="24" viewBox="0 0 30 24" fill="none" xmlns="http://www.w3.org/2000/svg">
    <path fill-rule="evenodd" clip-rule="evenodd" d="M5.66683 3.33341H3.00016V0.666748H27.0002V3.33341H24.3335V4.66675H25.5335C26.3435 4.66675 27.0002 5.32339 27.0002 6.13341V20.6667H29.6668V23.3334H0.333496V20.6667H3.00016V6.13341C3.00016 5.32339 3.65681 4.66675 4.46683 4.66675H5.66683V3.33341ZM8.3335 3.33341V4.66675H13.6668V3.33341H8.3335ZM16.3335 3.33341V4.66675H21.6668V3.33341H16.3335ZM17.6668 7.33341H24.3335V20.6667H17.6668V7.33341ZM15.0002 20.6667V18.0001L12.3335 18.0001V20.6668L15.0002 20.6667ZM9.66683 20.6668V7.33342L5.66683 7.33341V20.6667L9.66683 20.6668ZM12.3335 7.33342V10.0001L15.0002 10.0001L15.0002 7.33341L12.3335 7.33342ZM15.0002 12.6667L12.3335 12.6667V15.3334L15.0002 15.3334V12.6667Z" fill="#1D2126"/>
</svg>
