<svg width="31" height="28" viewBox="0 0 31 28" fill="none" xmlns="http://www.w3.org/2000/svg">
    <path d="M10.9997 3.3335H15.1663C15.9948 3.3335 16.6663 4.00507 16.6663 4.8335V11.3335H29.877C29.9928 11.3334 30.1066 11.3635 30.2072 11.4207C30.3078 11.478 30.3918 11.5605 30.4509 11.66C30.5099 11.7596 30.542 11.8728 30.5441 11.9886C30.5461 12.1043 30.5179 12.2186 30.4623 12.3202L25.1823 22.0002H24.333C23.6423 22.0007 22.9543 21.912 22.2863 21.7362L26.5063 14.0002H3.53301L4.93034 21.7655C4.29869 21.9218 3.65037 22.0006 2.99967 22.0002H2.27301L0.619675 12.9055C0.584751 12.7135 0.592378 12.5163 0.642018 12.3276C0.691658 12.1389 0.7821 11.9634 0.906964 11.8135C1.03183 11.6636 1.18807 11.5429 1.36467 11.46C1.54126 11.377 1.73391 11.3339 1.92901 11.3335H2.99967V4.66683C2.99967 4.31321 3.14015 3.97407 3.3902 3.72402C3.64025 3.47397 3.97939 3.3335 4.33301 3.3335H5.66634V0.333496H10.9997V3.3335ZM5.66634 11.3335H13.5223V6.00016H5.66634V11.3335ZM2.99967 24.6668C4.96803 24.6695 6.86777 23.9438 8.33301 22.6295C9.79824 23.9438 11.698 24.6695 13.6663 24.6668C15.6347 24.6695 17.5344 23.9438 18.9997 22.6295C20.4649 23.9438 22.3647 24.6695 24.333 24.6668H26.9997V27.3335H24.333C22.4605 27.3366 20.6205 26.8444 18.9997 25.9068C17.3788 26.8444 15.5388 27.3366 13.6663 27.3335C11.7939 27.3366 9.95388 26.8444 8.33301 25.9068C6.71214 26.8444 4.87215 27.3366 2.99967 27.3335H0.333008V24.6668H2.99967Z" fill="#1D2126"/>
</svg>
