<svg width="32" height="32" viewBox="0 0 32 32" fill="none" xmlns="http://www.w3.org/2000/svg">
<path d="M15.9998 14.6666C17.7679 14.6666 19.4636 15.369 20.7139 16.6192C21.9641 17.8695 22.6665 19.5652 22.6665 21.3333V29.3333H19.9998V21.3333C19.9999 20.313 19.6101 19.3313 18.9101 18.5889C18.2102 17.8466 17.253 17.3998 16.2345 17.34L15.9998 17.3333C14.9796 17.3332 13.9978 17.7231 13.2555 18.423C12.5132 19.1229 12.0664 20.0801 12.0065 21.0986L11.9998 21.3333V29.3333H9.33317V21.3333C9.33317 19.5652 10.0355 17.8695 11.2858 16.6192C12.536 15.369 14.2317 14.6666 15.9998 14.6666ZM7.33317 18.6666C7.70517 18.6666 8.0665 18.7106 8.41317 18.792C8.1852 19.4706 8.0502 20.1771 8.01184 20.892L7.99984 21.3333V21.448C7.84658 21.3931 7.68716 21.3573 7.52517 21.3413L7.33317 21.3333C6.83599 21.3333 6.35665 21.5185 5.98861 21.8528C5.62057 22.187 5.39023 22.6464 5.3425 23.1413L5.33317 23.3333V29.3333H2.6665V23.3333C2.6665 22.0956 3.15817 20.9086 4.03334 20.0335C4.90851 19.1583 6.09549 18.6666 7.33317 18.6666ZM24.6665 18.6666C25.9042 18.6666 27.0912 19.1583 27.9663 20.0335C28.8415 20.9086 29.3332 22.0956 29.3332 23.3333V29.3333H26.6665V23.3333C26.6665 22.8361 26.4813 22.3568 26.147 21.9887C25.8127 21.6207 25.3534 21.3904 24.8585 21.3426L24.6665 21.3333C24.4332 21.3333 24.2092 21.3733 23.9998 21.4466V21.3333C23.9998 20.4453 23.8558 19.592 23.5878 18.7946C23.9332 18.7106 24.2945 18.6666 24.6665 18.6666ZM7.33317 10.6666C8.21723 10.6666 9.06507 11.0178 9.69019 11.6429C10.3153 12.2681 10.6665 13.1159 10.6665 14C10.6665 14.884 10.3153 15.7319 9.69019 16.357C9.06507 16.9821 8.21723 17.3333 7.33317 17.3333C6.44912 17.3333 5.60127 16.9821 4.97615 16.357C4.35103 15.7319 3.99984 14.884 3.99984 14C3.99984 13.1159 4.35103 12.2681 4.97615 11.6429C5.60127 11.0178 6.44912 10.6666 7.33317 10.6666ZM24.6665 10.6666C25.5506 10.6666 26.3984 11.0178 27.0235 11.6429C27.6486 12.2681 27.9998 13.1159 27.9998 14C27.9998 14.884 27.6486 15.7319 27.0235 16.357C26.3984 16.9821 25.5506 17.3333 24.6665 17.3333C23.7824 17.3333 22.9346 16.9821 22.3095 16.357C21.6844 15.7319 21.3332 14.884 21.3332 14C21.3332 13.1159 21.6844 12.2681 22.3095 11.6429C22.9346 11.0178 23.7824 10.6666 24.6665 10.6666ZM7.33317 13.3333C7.15636 13.3333 6.98679 13.4035 6.86177 13.5286C6.73674 13.6536 6.6665 13.8231 6.6665 14C6.6665 14.1768 6.73674 14.3463 6.86177 14.4714C6.98679 14.5964 7.15636 14.6666 7.33317 14.6666C7.50998 14.6666 7.67955 14.5964 7.80457 14.4714C7.9296 14.3463 7.99984 14.1768 7.99984 14C7.99984 13.8231 7.9296 13.6536 7.80457 13.5286C7.67955 13.4035 7.50998 13.3333 7.33317 13.3333ZM24.6665 13.3333C24.4897 13.3333 24.3201 13.4035 24.1951 13.5286C24.0701 13.6536 23.9998 13.8231 23.9998 14C23.9998 14.1768 24.0701 14.3463 24.1951 14.4714C24.3201 14.5964 24.4897 14.6666 24.6665 14.6666C24.8433 14.6666 25.0129 14.5964 25.1379 14.4714C25.2629 14.3463 25.3332 14.1768 25.3332 14C25.3332 13.8231 25.2629 13.6536 25.1379 13.5286C25.0129 13.4035 24.8433 13.3333 24.6665 13.3333ZM15.9998 2.66663C17.4143 2.66663 18.7709 3.22853 19.7711 4.22872C20.7713 5.22892 21.3332 6.58547 21.3332 7.99996C21.3332 9.41445 20.7713 10.771 19.7711 11.7712C18.7709 12.7714 17.4143 13.3333 15.9998 13.3333C14.5854 13.3333 13.2288 12.7714 12.2286 11.7712C11.2284 10.771 10.6665 9.41445 10.6665 7.99996C10.6665 6.58547 11.2284 5.22892 12.2286 4.22872C13.2288 3.22853 14.5854 2.66663 15.9998 2.66663ZM15.9998 5.33329C15.2926 5.33329 14.6143 5.61424 14.1142 6.11434C13.6141 6.61444 13.3332 7.29272 13.3332 7.99996C13.3332 8.7072 13.6141 9.38548 14.1142 9.88558C14.6143 10.3857 15.2926 10.6666 15.9998 10.6666C16.7071 10.6666 17.3854 10.3857 17.8855 9.88558C18.3856 9.38548 18.6665 8.7072 18.6665 7.99996C18.6665 7.29272 18.3856 6.61444 17.8855 6.11434C17.3854 5.61424 16.7071 5.33329 15.9998 5.33329Z" fill="#1D2126"/>
</svg>
