<svg width="32" height="32" viewBox="0 0 32 32" fill="none" xmlns="http://www.w3.org/2000/svg">
<path d="M17.3327 2.73337C24.07 3.40137 29.3327 9.08671 29.3327 16V17.3334H17.3327V25.3334C17.3327 26.0406 17.6136 26.7189 18.1137 27.219C18.6138 27.7191 19.2921 28 19.9993 28C20.7066 28 21.3849 27.7191 21.885 27.219C22.3851 26.7189 22.666 26.0406 22.666 25.3334V24H25.3327V25.3334C25.3327 26.7479 24.7708 28.1044 23.7706 29.1046C22.7704 30.1048 21.4138 30.6667 19.9993 30.6667C18.5849 30.6667 17.2283 30.1048 16.2281 29.1046C15.2279 28.1044 14.666 26.7479 14.666 25.3334V17.3334H2.66602V16C2.66602 9.08671 7.92868 3.40137 14.666 2.73337V2.66671C14.666 2.31309 14.8065 1.97395 15.0565 1.7239C15.3066 1.47385 15.6457 1.33337 15.9993 1.33337C16.353 1.33337 16.6921 1.47385 16.9422 1.7239C17.1922 1.97395 17.3327 2.31309 17.3327 2.66671V2.73337ZM26.5833 14.6667C26.258 12.0892 25.0032 9.71907 23.0546 8.00094C21.1059 6.28281 18.5973 5.33481 15.9993 5.33481C13.4014 5.33481 10.8928 6.28281 8.94411 8.00094C6.99546 9.71907 5.74072 12.0892 5.41535 14.6667H26.5833Z" fill="#1D2126"/>
</svg>
