<svg width="32" height="32" viewBox="0 0 32 32" fill="none" xmlns="http://www.w3.org/2000/svg">
<path d="M15.9998 28.3334C8.63584 28.3334 2.6665 22.3641 2.6665 15.0001C2.6665 7.63608 8.63584 1.66675 15.9998 1.66675C23.3638 1.66675 29.3332 7.63608 29.3332 15.0001C29.3332 22.3641 23.3638 28.3334 15.9998 28.3334ZM9.3505 23.3414C11.2379 24.8503 13.5834 25.6706 15.9998 25.6667C18.6265 25.6667 21.0305 24.7174 22.8892 23.1441C22.0208 22.2531 20.9826 21.5453 19.8359 21.0625C18.6892 20.5797 17.4573 20.3318 16.2132 20.3334C14.9233 20.3319 13.6472 20.5986 12.4658 21.1164C11.2844 21.6342 10.2235 22.3919 9.3505 23.3414ZM7.48784 21.4267C8.60844 20.2375 9.96073 19.2904 11.4614 18.6437C12.962 17.997 14.5791 17.6646 16.2132 17.6667C17.7887 17.6647 19.3491 17.9739 20.8048 18.5766C22.2605 19.1793 23.5828 20.0636 24.6958 21.1787C25.8373 19.5722 26.5113 17.6809 26.6433 15.7146C26.7752 13.7483 26.3598 11.7839 25.4432 10.0394C24.5265 8.29478 23.1445 6.83825 21.4505 5.83134C19.7564 4.82444 17.8165 4.30653 15.846 4.33508C13.8755 4.36364 11.9514 4.93753 10.2872 5.99309C8.62301 7.04865 7.28378 8.54462 6.41809 10.315C5.5524 12.0854 5.1941 14.061 5.38293 16.0227C5.57175 17.9843 6.30033 19.8553 7.48784 21.4281V21.4267ZM15.9998 16.3334C14.5854 16.3334 13.2288 15.7715 12.2286 14.7713C11.2284 13.7711 10.6665 12.4146 10.6665 11.0001C10.6665 9.58559 11.2284 8.22904 12.2286 7.22885C13.2288 6.22865 14.5854 5.66675 15.9998 5.66675C17.4143 5.66675 18.7709 6.22865 19.7711 7.22885C20.7713 8.22904 21.3332 9.58559 21.3332 11.0001C21.3332 12.4146 20.7713 13.7711 19.7711 14.7713C18.7709 15.7715 17.4143 16.3334 15.9998 16.3334ZM15.9998 13.6667C16.7071 13.6667 17.3854 13.3858 17.8855 12.8857C18.3856 12.3856 18.6665 11.7073 18.6665 11.0001C18.6665 10.2928 18.3856 9.61456 17.8855 9.11446C17.3854 8.61437 16.7071 8.33342 15.9998 8.33342C15.2926 8.33342 14.6143 8.61437 14.1142 9.11446C13.6141 9.61456 13.3332 10.2928 13.3332 11.0001C13.3332 11.7073 13.6141 12.3856 14.1142 12.8857C14.6143 13.3858 15.2926 13.6667 15.9998 13.6667Z" fill="#1D2126"/>
</svg>
