<svg width="32" height="32" viewBox="0 0 32 32" fill="none" xmlns="http://www.w3.org/2000/svg">
<path d="M18.6663 19.0027V21.7894C17.4596 21.3627 16.168 21.2318 14.9002 21.4078C13.6324 21.5837 12.4253 22.0612 11.3802 22.8003C10.3352 23.5394 9.4828 24.5185 8.89456 25.6553C8.30632 26.7921 7.99943 28.0534 7.99967 29.3334L5.33301 29.332C5.33259 27.7039 5.7049 26.0972 6.42141 24.6352C7.13791 23.1732 8.17959 21.8946 9.46663 20.8974C10.7537 19.9002 12.2519 19.2109 13.8465 18.8822C15.4412 18.5536 17.0899 18.5943 18.6663 19.0014V19.0027ZM15.9997 17.3334C11.5797 17.3334 7.99967 13.7534 7.99967 9.33337C7.99967 4.91337 11.5797 1.33337 15.9997 1.33337C20.4197 1.33337 23.9997 4.91337 23.9997 9.33337C23.9997 13.7534 20.4197 17.3334 15.9997 17.3334ZM15.9997 14.6667C18.9463 14.6667 21.333 12.28 21.333 9.33337C21.333 6.38671 18.9463 4.00004 15.9997 4.00004C13.053 4.00004 10.6663 6.38671 10.6663 9.33337C10.6663 12.28 13.053 14.6667 15.9997 14.6667ZM23.9997 22.6667V18.6667H26.6663V22.6667H30.6663V25.3334H26.6663V29.3334H23.9997V25.3334H19.9997V22.6667H23.9997Z" fill="#1D2126"/>
</svg>
