<svg width="72" height="72" viewBox="0 0 72 72" fill="none" xmlns="http://www.w3.org/2000/svg">
    <defs>
        <linearGradient id="paint0_linear" x1="5.17559e-07" y1="37.44" x2="70.6829" y2="37.44" gradientUnits="userSpaceOnUse">
            <stop stop-color="#0E9488"/>
            <stop offset="0.322917" stop-color="#0E9488"/>
            <stop offset="0.541546" stop-color="#49A362"/>
            <stop offset="0.727726" stop-color="#64AA52"/>
            <stop offset="1" stop-color="#76AE46"/>
        </linearGradient>
        <linearGradient id="paint1_linear" x1="23.8899" y1="18.4691" x2="51.5488" y2="49.5408" gradientUnits="userSpaceOnUse">
            <stop stop-color="#1F998E"/>
            <stop offset="1" stop-color="#80B140"/>
        </linearGradient>
    </defs>
    <circle cx="36" cy="36" r="36" fill="white"/>
    <circle cx="36" cy="36" r="34.5" stroke="#49A362" stroke-opacity="0.8" stroke-width="3"/>
    <path d="M36.2178 16H31.7798C30.3004 16 28.8211 16.9877 28.8211 16.9877C25.698 18.7984 21.4243 21.4321 18.4656 23.4074C16.9977 24.3874 16 25.3827 16 26.8642V45.6296C16 47.1111 18.0132 48.5183 18.9587 49.0864C21.4243 50.5679 24.383 52.0494 28.3279 54.5185C36.711 53.037 43.1215 44.642 46.0802 40.1975C46.0802 46.1235 40.6559 51.5556 36.2178 56C37.204 56 40.1628 56 43.6146 54.5185C47.0665 53.037 51.6227 49.8415 53.477 44.642C55.9426 37.7284 54.9563 32.2963 53.9701 28.8395C53.2037 26.1535 51.1757 23.9012 50.0251 23.4074C50.0251 23.9012 50.0251 25.3827 49.532 26.8642C48.5458 29.8272 44.1077 31.8025 38.6834 32.7901C33.2591 33.7778 30.7935 36.2469 29.3142 38.716C27.592 41.5905 27.5061 46.4527 27.8348 49.0864C26.3555 48.0987 24.8761 47.1111 22.4105 45.6296C20.1413 44.2662 19.9449 42.1728 19.9449 41.1852V29.3333C19.9449 27.8518 20.9843 26.8463 23.3968 25.3827C26.5 23.5 28.1159 22.4769 31.5 20.5C32.2202 20.0793 33.5138 20 34.5 20C35.4862 20 36.289 20.0728 37 20.5C39.6697 22.1041 41.6421 23.4074 45.5871 25.8765C47.0664 24.8889 47.5595 22.9136 47.0664 21.4321C45.2583 20.2798 43.473 19.1641 39.6697 16.9877C38.1281 16.1055 37.6972 16 36.2178 16Z" fill="url(#paint1_linear)"/>
</svg>
