<svg width="375" height="667" viewBox="0 0 375 667" fill="none" xmlns="http://www.w3.org/2000/svg">
<g opacity="0.2">
<path d="M-151.982 371.629L101.434 59.1008L419.871 378.731" stroke="white" stroke-width="0.84" stroke-miterlimit="10"/>
<path d="M159.385 703.547L317.207 275.67" stroke="white" stroke-width="0.84" stroke-miterlimit="10"/>
<path d="M422.077 40.913L255.552 213.786" stroke="white" stroke-width="0.84" stroke-miterlimit="10"/>
<path d="M-236.824 611.417L24.6342 438.617" stroke="white" stroke-width="0.84" stroke-miterlimit="10"/>
<path d="M-97.2528 -25.9601L-177.639 362.561L228.851 515.395" stroke="white" stroke-width="0.84" stroke-miterlimit="10"/>
<path d="M-26.6133 217.007L239.865 485.263" stroke="white" stroke-width="0.84" stroke-miterlimit="10"/>
<path d="M54.1694 449.725L122.047 704.688" stroke="white" stroke-width="0.84" stroke-miterlimit="10"/>
<path d="M254.653 446.828L487.036 547.472" stroke="white" stroke-width="0.84" stroke-miterlimit="10"/>
<path d="M54.1701 449.725L-36.0366 652.122" stroke="white" stroke-width="0.84" stroke-miterlimit="10"/>
<path d="M101.433 59.1008L53.2805 297.435" stroke="white" stroke-width="0.84" stroke-miterlimit="10"/>
<path d="M98.7557 343.213L-40.1887 414.238" stroke="white" stroke-width="0.84" stroke-miterlimit="10"/>
<path d="M42.1219 286.191L-151.982 371.629" stroke="white" stroke-width="0.84" stroke-miterlimit="10"/>
<path d="M167.543 125.943L98.7554 343.212" stroke="white" stroke-width="0.84" stroke-miterlimit="10"/>
<path d="M80.5151 459.629L166.444 411.351" stroke="white" stroke-width="0.84" stroke-miterlimit="10"/>
<path d="M123.48 265.4L301.446 317.265" stroke="white" stroke-width="0.84" stroke-miterlimit="10"/>
<path d="M225.756 294.935L201.042 446.169" stroke="white" stroke-width="0.84" stroke-miterlimit="10"/>
<path d="M279.085 237.412L235.074 297.738" stroke="white" stroke-width="0.84" stroke-miterlimit="10"/>
<path d="M132.6 235.143L229.103 187.242" stroke="white" stroke-width="0.84" stroke-miterlimit="10"/>
<path d="M-113.265 56.8313L14.97 165.728" stroke="white" stroke-width="0.84" stroke-miterlimit="10"/>
<path d="M-131.985 142.352L14.9712 165.728" stroke="white" stroke-width="0.84" stroke-miterlimit="10"/>
<path d="M217.013 550.924L398.933 704.615" stroke="white" stroke-width="0.84" stroke-miterlimit="10"/>
<path d="M254.653 446.828L398.931 704.615" stroke="white" stroke-width="0.84" stroke-miterlimit="10"/>
<path d="M318.912 561.644L435.83 525.613" stroke="white" stroke-width="0.84" stroke-miterlimit="10"/>
<path d="M251.861 18.9913L255.553 213.785" stroke="white" stroke-width="0.84" stroke-miterlimit="10"/>
<path d="M317.207 275.67L351.418 203.034" stroke="white" stroke-width="0.84" stroke-miterlimit="10"/>
<path d="M299.615 168.039L428.687 255.234" stroke="white" stroke-width="0.84" stroke-miterlimit="10"/>
<path d="M190.614 501.035L85.5771 569.801" stroke="white" stroke-width="0.84" stroke-miterlimit="10"/>
<path d="M263.083 422.155L419.87 378.73" stroke="white" stroke-width="0.84" stroke-miterlimit="10"/>
<path d="M332.299 402.984L297.827 328.916" stroke="white" stroke-width="0.84" stroke-miterlimit="10"/>
<path d="M-97.2522 -25.9601L422.077 40.9131" stroke="white" stroke-width="0.84" stroke-miterlimit="10"/>
<path d="M530.786 551.656L353.688 623.779" stroke="white" stroke-width="0.84" stroke-miterlimit="10"/>
<path d="M307.972 409.72L355.528 490.827" stroke="white" stroke-width="0.84" stroke-miterlimit="10"/>
<path d="M369.826 392.588L435.831 525.613" stroke="white" stroke-width="0.84" stroke-miterlimit="10"/>
</g>
</svg>
