<svg width="22" height="25" viewBox="0 0 22 25" fill="none" xmlns="http://www.w3.org/2000/svg">
<path d="M21.875 5.58333V1.91667C21.875 0.833333 21 0 19.8625 0H2.0125C0.875 0 0 0.833333 0 1.91667V5.58333H1.4875V19.4167H0V23.0833C0 24.1667 0.875 25 2.0125 25H19.8625C21 25 21.875 24.1667 21.875 23.0833V19.4167H20.3875V5.58333H21.875ZM2.0125 1.91667H19.8625V3.66667H2.0125V1.91667ZM2.0125 23.0833V21.3333H19.8625V23.0833H2.0125ZM18.375 19.4167H3.4125V5.58333H18.375V19.4167ZM10.9375 17.9167C13.125 17.9167 14.9625 16.1667 14.9625 14.0833C14.9625 11.25 11.9875 8.58333 11.6375 8.33333L10.9375 7.75L10.2375 8.33333C9.8875 8.66667 6.9125 11.4167 6.9125 14.0833C6.9125 16.1667 8.6625 17.9167 10.9375 17.9167ZM10.9375 10.4167C11.8125 11.3333 12.95 12.8333 12.95 14.0833C12.95 15.1667 12.075 16 10.9375 16C9.8 16 8.925 15.1667 8.925 14.0833C8.8375 12.9167 10.0625 11.3333 10.9375 10.4167Z" fill="#BBBBBB"/>
</svg>
