<svg width="14" height="16" viewBox="0 0 14 16" fill="none" xmlns="http://www.w3.org/2000/svg">
<path fill-rule="evenodd" clip-rule="evenodd" d="M1.4 2.59998V1.4H12.6V2.59998H11.6H2.4H1.4ZM1 4H0V2.6V1C0 0.447715 0.447715 0 1 0H13C13.5523 0 14 0.447715 14 1V2.6V4H13V12L14 12V13.4V15C14 15.5523 13.5523 16 13 16H1C0.447716 16 0 15.5523 0 15V13.4V12H1V4ZM2.4 4V12H11.6V4H2.4ZM9.5 8.7377C9.5 9.96721 8.3587 11 7 11C5.58696 11 4.5 9.96721 4.5 8.7377C4.5 7.2033 6.25655 5.62214 6.5459 5.36168L6.56522 5.34426L7 5L7.43478 5.34426C7.65217 5.4918 9.5 7.06557 9.5 8.7377ZM8.25 8.7377C8.25 8 7.54348 7.11475 7 6.57377C6.45652 7.11475 5.69565 8.04918 5.75 8.7377C5.75 9.37705 6.29348 9.86885 7 9.86885C7.70652 9.86885 8.25 9.37705 8.25 8.7377ZM12.6 14.6V13.4H1.4V14.6H12.6Z" fill="#BBBBBB"/>
</svg>
