<svg width="33" height="32" viewBox="0 0 33 32" fill="none" xmlns="http://www.w3.org/2000/svg">
<path fill-rule="evenodd" clip-rule="evenodd" d="M8.77817 7.77816C8.19239 8.36395 8.19239 9.31369 8.77817 9.89948L14.435 15.5563L8.77817 21.2132C8.19239 21.799 8.19239 22.7487 8.77817 23.3345C9.36396 23.9203 10.3137 23.9203 10.8995 23.3345L16.5563 17.6777L22.2132 23.3345C22.799 23.9203 23.7487 23.9203 24.3345 23.3345C24.9203 22.7487 24.9203 21.799 24.3345 21.2132L18.6777 15.5563L24.3345 9.89948C24.9203 9.3137 24.9203 8.36395 24.3345 7.77816C23.7487 7.19237 22.799 7.19238 22.2132 7.77816L16.5563 13.435L10.8995 7.77816C10.3137 7.19237 9.36396 7.19237 8.77817 7.77816Z" fill="#757678"/>
<path fill-rule="evenodd" clip-rule="evenodd" d="M7.77817 7.77816C7.19239 8.36395 7.19239 9.31369 7.77817 9.89948L13.435 15.5563L7.77817 21.2132C7.19239 21.799 7.19239 22.7487 7.77817 23.3345C8.36396 23.9203 9.31371 23.9203 9.89949 23.3345L15.5563 17.6777L21.2132 23.3345C21.799 23.9203 22.7487 23.9203 23.3345 23.3345C23.9203 22.7487 23.9203 21.799 23.3345 21.2132L17.6777 15.5563L23.3345 9.89948C23.9203 9.3137 23.9203 8.36395 23.3345 7.77816C22.7487 7.19237 21.799 7.19238 21.2132 7.77816L15.5563 13.435L9.89949 7.77816C9.31371 7.19237 8.36396 7.19237 7.77817 7.77816Z" fill="#E5E5E5"/>
</svg>
