<svg width="23" height="21" viewBox="0 0 23 21" fill="none" xmlns="http://www.w3.org/2000/svg">
<path d="M7.255 20.2777C6.88833 20.2777 6.44833 20.1261 6.155 19.8987C5.78833 19.5956 5.56833 19.065 5.56833 18.5344V16.5637H3.58833C2.12167 16.5637 0.875 15.2751 0.875 13.7592V3.52665C0.875 2.01071 2.12167 0.722168 3.58833 0.722168H20.1617C21.6283 0.722168 22.875 2.01071 22.875 3.52665V13.6834C22.875 15.1993 21.6283 16.4879 20.1617 16.4879H11.5817L8.42833 19.7471C8.135 20.0503 7.695 20.2777 7.255 20.2777ZM3.58833 2.46549C3.00167 2.46549 2.56167 2.92027 2.56167 3.52665V13.6834C2.56167 14.2898 3.00167 14.7446 3.58833 14.7446H7.255V18.5344C7.255 18.5344 7.255 18.5344 7.255 18.6102L10.9217 14.8204H20.235C20.8217 14.8204 21.2617 14.3656 21.2617 13.7592V3.52665C21.2617 2.92027 20.8217 2.46549 20.235 2.46549H3.58833Z" fill="#BBBBBB"/>
</svg>
