<svg width="16" height="17" viewBox="0 0 16 17" fill="none" xmlns="http://www.w3.org/2000/svg">
<path fill-rule="evenodd" clip-rule="evenodd" d="M10.6671 11C10.6671 10.632 10.9651 10.3333 11.3338 10.3333C11.7025 10.3333 12.0005 10.632 12.0005 11V15C12.0005 15.368 11.7025 15.6667 11.3338 15.6667H8.00046V16.3333C8.00046 16.5333 7.91046 16.722 7.75646 16.8487C7.63646 16.9474 7.48646 17 7.3338 17C7.29049 17 7.24649 16.996 7.20314 16.9867L0.536488 15.6533C0.225145 15.5913 0.000488281 15.318 0.000488281 15V1.66666C0.000488281 1.65976 0.00282168 1.65321 0.00516122 1.64665C0.0073359 1.64054 0.00951589 1.63443 0.00983203 1.628C0.0101043 1.61997 0.00923059 1.61207 0.00835388 1.60413C0.00711775 1.59294 0.00587575 1.5817 0.00783203 1.57C0.0148537 1.52085 0.0336719 1.47682 0.0526014 1.43254C0.0552388 1.42637 0.0578782 1.42019 0.0604883 1.414C0.0635331 1.40623 0.0656569 1.39834 0.0677732 1.39048C0.0707396 1.37947 0.0736914 1.36851 0.0791445 1.358C0.123145 1.27466 0.183801 1.20466 0.256457 1.14734C0.259126 1.14535 0.260961 1.14251 0.262799 1.13968C0.264641 1.13683 0.266486 1.13399 0.269176 1.13197C0.276683 1.12625 0.28534 1.12342 0.294015 1.12057C0.301518 1.11811 0.309035 1.11565 0.315832 1.11131C0.375145 1.074 0.438488 1.04666 0.508488 1.02866C0.538488 1.02131 0.567145 1.016 0.598488 1.01266C0.608363 1.01153 0.617884 1.00909 0.627403 1.00665C0.640358 1.00332 0.65331 1 0.667145 1H11.3338C11.7025 1 12.0005 1.29866 12.0005 1.66669V5.66669C12.0005 6.03469 11.7025 6.33334 11.3338 6.33334C10.9651 6.33334 10.6671 6.03469 10.6671 5.66669V2.33334H5.2098L7.52514 3.028C7.80714 3.11266 8.00049 3.37266 8.00049 3.66666V14.3333H10.6671V11ZM15.8047 7.86118C15.8667 7.92318 15.9153 7.99718 15.9493 8.07853C16.0166 8.24118 16.0166 8.42518 15.9493 8.58778C15.9153 8.66978 15.8667 8.74378 15.8047 8.80512L13.8053 10.8045C13.6753 10.9352 13.5047 10.9998 13.334 10.9998C13.1633 10.9998 12.9926 10.9351 12.8626 10.8045C12.602 10.5445 12.602 10.1225 12.8626 9.86181L13.7246 8.99981H10.0006C9.63198 8.99981 9.33398 8.70115 9.33398 8.33315C9.33398 7.96515 9.63198 7.6665 10.0006 7.6665H13.7247L12.8627 6.8045C12.602 6.5445 12.602 6.1225 12.8627 5.86184C13.1233 5.60184 13.5447 5.60184 13.8053 5.86184L15.8047 7.86118Z" fill="#2C4155"/>
</svg>
