<svg width="20" height="14" viewBox="0 0 20 14" fill="none" xmlns="http://www.w3.org/2000/svg">
<path fill-rule="evenodd" clip-rule="evenodd" d="M9.99634 13.4583C8.50207 13.429 7.03291 13.0355 5.72281 12.3156L4.45456 11.5664C2.80542 10.4321 1.34882 9.04243 0.134987 7.45189C-0.0449956 7.20075 -0.0449956 6.86171 0.134987 6.61058C0.310783 6.36362 4.56757 0.600006 9.99634 0.600006C11.4948 0.629306 12.9598 1.02276 14.2699 1.7385L15.5423 2.49191C17.1914 3.62622 18.648 5.01585 19.8619 6.60639C20.046 6.85753 20.046 7.19656 19.8619 7.4477C19.6819 7.69465 15.4251 13.4583 9.99634 13.4583ZM1.62089 7.02914C2.73426 8.3811 4.036 9.55726 5.4926 10.5283L6.79014 11.2441C7.78632 11.7422 8.88296 12.01 9.99634 12.031C13.9141 12.031 17.3212 8.30157 18.376 7.02914C17.2626 5.67718 15.9609 4.50102 14.5043 3.52995L13.4034 2.92722L13.2025 2.81421L13.2025 2.81419C13.1272 2.77653 13.0518 2.73886 12.9765 2.70538C12.0389 2.27844 11.026 2.04824 9.99634 2.02731C6.08277 2.02731 2.67148 5.75671 1.62089 7.02914ZM12.131 7.02914C12.131 5.85298 11.1725 4.89447 9.99634 4.89447C8.82018 4.89447 7.86166 5.85298 7.86166 7.02914C7.86166 8.20531 8.82018 9.16382 9.99634 9.16382C11.1725 9.16382 12.131 8.20531 12.131 7.02914ZM6.42599 7.02914C6.42599 5.05771 8.0249 3.4588 9.99634 3.4588C11.972 3.4588 13.5709 5.05771 13.5667 7.02914C13.5667 9.00058 11.9678 10.5995 9.99634 10.5995C8.0249 10.5995 6.42599 9.00058 6.42599 7.02914Z" fill="#1D2126"/>
</svg>
