<svg width="25" height="26" viewBox="0 0 25 26" fill="none" xmlns="http://www.w3.org/2000/svg">
<path fill-rule="evenodd" clip-rule="evenodd" d="M19.7895 12.2802L22.8199 12.2596L12.4061 1.84583L1.84963 12.4023L5.02285 12.3807L5.02285 24.1542H8.71451V18.6167C8.71451 17.0876 9.95412 15.8479 11.4833 15.8479H13.3291C14.8582 15.8479 16.0978 17.0876 16.0978 18.6167V24.1542H19.7895V12.2802ZM14.252 26V18.6167C14.252 18.107 13.8388 17.6938 13.3291 17.6938H11.4833C10.9735 17.6938 10.5603 18.107 10.5603 18.6167V26H5.02285C4.00343 26 3.17702 25.1736 3.17702 24.1542V14.2392L1.86219 14.2481C1.79302 14.2486 1.72528 14.2455 1.65906 14.2392C0.145284 14.0936 -0.573753 12.2153 0.544429 11.0971L11.1009 0.540631C11.8218 -0.18021 12.9905 -0.180211 13.7113 0.54063L24.1251 10.9544C25.2836 12.1129 24.4708 14.0942 22.8325 14.1054L21.6353 14.1135V24.1542C21.6353 25.1736 20.8089 26 19.7895 26H14.252Z" fill="#BBBBBB"/>
</svg>
