<svg width="86" height="100" viewBox="0 0 86 100" fill="none" xmlns="http://www.w3.org/2000/svg">
<path fill-rule="evenodd" clip-rule="evenodd" d="M58.077 3.46896C58.3222 3.29735 58.2854 2.91736 58.0034 2.79478C54.7537 1.40965 51.3201 0.453539 47.7516 0C44.2175 11.487 44.0336 25.0056 43.5873 57.8238V57.824C43.5659 59.3958 43.5439 61.0119 43.5209 62.6742C43.6926 62.6742 43.8643 62.6773 44.036 62.6804C44.2077 62.6834 44.3793 62.6865 44.551 62.6865C44.6035 61.4049 44.6543 60.1343 44.7047 58.8756C45.7603 32.4941 46.6066 11.3428 58.077 3.46896ZM45.4837 87.1777V99.5826C45.4837 99.8033 45.6799 99.9871 45.9006 99.9749C48.8315 99.7542 51.6397 99.2149 54.3252 98.3813C54.4847 98.3323 54.595 98.1852 54.595 98.0136V67.6142C54.595 67.4181 54.4479 67.2465 54.2517 67.2342C51.517 66.9278 48.7211 66.7317 45.8761 66.6581C45.6554 66.6581 45.4837 66.8297 45.4837 67.0504V78.0089H40.6153V67.0504C40.6153 66.8297 40.4314 66.6581 40.2229 66.6581C37.3779 66.7317 34.582 66.9278 31.8474 67.2342C31.6512 67.2587 31.504 67.4181 31.504 67.6142V98.1117C31.504 98.2833 31.6144 98.4304 31.7738 98.4794C34.4348 99.2884 37.2553 99.8033 40.1984 99.9994C40.4191 100.012 40.6153 99.84 40.6153 99.6071V87.1777H45.4837ZM28.9163 67.5773C25.4459 68.0677 22.0859 68.7418 18.9221 69.5876C18.8117 69.6121 18.7259 69.698 18.6768 69.796L14.7772 77.972H14.1273V71.5979C14.1273 71.3282 13.8575 71.1444 13.6122 71.2302C11.3068 72.0392 9.13628 72.9585 7.10064 73.9637C6.69596 74.1598 6.30355 74.3682 5.9234 74.5766C5.73945 74.6746 5.66588 74.9075 5.76398 75.0914C8.76839 80.7545 12.3982 85.6821 16.6534 89.6292C16.8374 89.8008 17.1439 89.7517 17.2666 89.5188L19.621 84.7751H20.2342V92.4239C20.2342 92.5465 20.2955 92.6691 20.3936 92.7426C23.0056 94.6549 25.8138 96.2361 28.8182 97.4374C29.0757 97.5355 29.3455 97.3516 29.3455 97.0819V67.9696C29.3578 67.7367 29.1493 67.5528 28.9163 67.5773ZM70.6838 70.5316C72.6581 71.2181 75.7606 72.9709 76.7049 73.5593C76.8765 73.6574 76.9624 73.878 76.8398 74.0619L74.0193 79.9456C74.7551 80.3624 75.5031 80.9017 76.0917 81.4288C76.2389 81.5637 76.2757 81.7843 76.153 81.9436C74.424 84.3339 72.3393 86.6874 70.3527 88.6487C69.3839 87.6926 67.5935 87.0429 65.9381 87.1777V92.1667C65.9381 92.3015 65.8767 92.4118 65.7786 92.4854C63.1544 94.4344 60.3462 96.0524 57.354 97.2782C57.1088 97.3885 56.8267 97.1924 56.8267 96.9227V68.0065C56.8267 67.7736 57.0352 67.5897 57.2682 67.6265C60.1622 68.031 62.9704 68.5826 65.656 69.2445C65.8277 69.2813 65.9503 69.4407 65.9503 69.6123L66.0116 77.9966H66.6616C66.6616 77.9966 69.5311 72.1374 70.2055 70.7277C70.2914 70.5439 70.4999 70.4703 70.6838 70.5316ZM73.6879 15.2977C63.105 15.7267 55.968 22.3337 51.5411 35.6824C49.2234 42.6449 47.1877 53.9711 46.6236 62.7477L45.5936 62.7109C46.1086 51.7892 46.967 42.51 48.1442 35.0328C50.6581 19.0486 55.1709 10.2965 65.3123 6.7785C68.4884 8.97265 71.3947 11.6203 73.9699 14.6603C74.1661 14.9054 74.0067 15.2854 73.6879 15.2977ZM53.7486 46.1875C61.928 30.3504 76.2756 28.2298 84.2465 36.0257C84.5285 36.2954 84.9822 36.0257 84.8841 35.6457C83.5965 30.5587 81.6222 25.815 79.1083 21.5493C60.8611 16.5481 49.7755 37.3618 47.654 62.7723L47.6884 62.7735L47.6887 62.7735C48.0213 62.7854 48.3645 62.7976 48.6963 62.8213C49.7019 55.8344 50.7442 51.9977 53.7486 46.1875ZM57.1701 45.2927C65.9871 34.1013 78.8631 36.1851 85.7303 44.3366C85.902 46.1385 85.9879 47.9771 86.0001 49.8403C86.0001 54.4125 85.4728 58.8375 84.4795 63.042C84.3937 63.4097 83.7805 63.471 83.7437 63.1033C82.775 54.2531 72.376 46.6655 61.9158 49.8281C57.4276 51.1764 52.6083 55.2338 50.7566 62.9317C50.5806 62.9191 50.4014 62.9098 50.2207 62.9003L50.2204 62.9003C50.0485 62.8914 49.8752 62.8823 49.702 62.8704C50.9037 55.2092 53.994 49.3255 57.1701 45.2927ZM38.2357 0C34.6672 0.453539 31.2336 1.39739 27.9717 2.79478C27.7019 2.91736 27.6528 3.29735 27.8981 3.46896C39.3685 11.3428 40.2148 32.494 41.2704 58.8756C41.3207 60.1343 41.3716 61.4049 41.4241 62.6865C41.5957 62.6865 41.7674 62.6834 41.9391 62.6804C42.1108 62.6773 42.2825 62.6742 42.4541 62.6742C42.4323 61.0571 42.4114 59.4836 42.3911 57.9521V57.9521C41.9542 25.0408 41.7744 11.5019 38.2357 0ZM20.6877 6.7663C30.8291 10.2843 35.3418 19.0364 37.8557 35.0206C39.0207 42.4978 39.8913 51.777 40.4187 62.6865L39.3886 62.7232C38.8122 53.9589 36.7643 42.6449 34.4589 35.6702C30.032 22.3215 22.8827 15.7268 12.3121 15.2855C11.9933 15.2732 11.8216 14.8932 12.0301 14.6481C14.6053 11.6204 17.5116 8.96045 20.6877 6.7663ZM6.87982 21.5493C4.35366 25.815 2.3916 30.571 1.104 35.6457C1.00589 36.0257 1.45962 36.2954 1.74167 36.0257C9.71254 28.2175 24.0479 30.3504 32.2395 46.1875C35.2439 52.0099 36.2862 55.8344 37.304 62.8213C37.6474 62.8091 37.9908 62.7968 38.3464 62.7723C36.2126 37.3618 25.127 16.5481 6.87982 21.5493ZM0.257521 44.3365C7.12474 36.1851 20.0008 34.1013 28.8178 45.2927C31.9939 49.3255 35.0964 55.2215 36.2982 62.8704C35.9642 62.8819 35.6411 62.9042 35.3085 62.9272L35.2435 62.9317C33.3918 55.2337 28.6461 50.9558 24.0843 49.828C12.876 47.0578 3.48266 54.3757 2.25637 63.1033C2.20732 63.471 1.60644 63.4097 1.5206 63.042C0.527304 58.8375 0 54.4125 0 49.8403C0 47.9771 0.08584 46.1507 0.257521 44.3365Z" fill="white"/>
</svg>
