<svg width="26" height="27" viewBox="0 0 26 27" fill="none" xmlns="http://www.w3.org/2000/svg">
<path fill-rule="evenodd" clip-rule="evenodd" d="M0 13C0 5.82075 5.82075 0 13 0C20.1793 0 26 5.82075 26 13C26 20.1793 20.1793 26 13 26C5.82075 26 0 20.1793 0 13ZM17.875 17.0625C19.6674 17.0625 21.125 15.6049 21.125 13.8125V13.3396C21.125 9.07237 18.096 5.46325 14.0774 4.94325C11.4189 4.60687 8.85625 5.52175 7.04275 7.47337C5.2325 9.425 4.50612 12.064 5.0505 14.7144C5.68263 17.7856 8.05838 20.2166 11.1036 20.9089C11.7406 21.0551 12.3776 21.1266 13.0065 21.1266C14.2561 21.1266 15.4749 20.8423 16.6026 20.2833C17.004 20.0834 17.1681 19.5959 16.9699 19.1929C16.7684 18.7899 16.2841 18.629 15.8795 18.8256C14.5226 19.5 12.9951 19.6723 11.4644 19.3245C9.07725 18.7817 7.13862 16.796 6.643 14.3878C6.20425 12.2574 6.786 10.14 8.23388 8.57837C9.68338 7.01837 11.7358 6.28387 13.8694 6.55687C17.0804 6.97125 19.5 9.8865 19.5 13.3396V13.8125C19.5 14.7095 18.772 15.4375 17.875 15.4375C16.978 15.4375 16.25 14.7095 16.25 13.8125V10.5625C16.25 10.114 15.886 9.75 15.4375 9.75C15.1044 9.75 14.82 9.9515 14.6949 10.2375C14.2106 9.932 13.6419 9.75 13 9.75C11.0857 9.75 9.75 11.2531 9.75 13.4062C9.75 15.5594 11.0857 17.0625 13 17.0625C14.0091 17.0625 14.8492 16.6368 15.4261 15.925C16.0225 16.6156 16.8935 17.0625 17.875 17.0625ZM11.375 13.4062C11.375 12.1534 11.9974 11.375 13 11.375C14.0026 11.375 14.625 12.1534 14.625 13.4062C14.625 14.6591 14.0026 15.4375 13 15.4375C11.9974 15.4375 11.375 14.6591 11.375 13.4062Z" fill="#2B5E4A"/>
</svg>
