<svg width="16" height="14" viewBox="0 0 16 14" fill="none" xmlns="http://www.w3.org/2000/svg">
<path d="M15.4867 9.8504C15.1316 8.19928 14.67 6.58366 14.1196 5.02131C13.5515 3.45896 12.8768 1.89661 12.1134 0.405272C12.0246 0.227732 11.8649 0.103454 11.6696 0.0501918C11.4743 -0.00307018 11.279 0.0501918 11.1192 0.156716L1.51428 6.99201C1.37225 6.90324 1.19471 6.88548 1.01717 6.92099C0.644337 7.00976 0.431289 7.38259 0.520059 7.75543C0.679845 8.41233 0.875139 9.03372 1.10594 9.65511C1.33674 10.2765 1.5853 10.8801 1.86936 11.5015C2.02915 11.8388 2.43749 11.9986 2.77482 11.8388C2.9346 11.7678 3.05888 11.6258 3.1299 11.466L5.04733 11.3417L6.41439 11.253L8.9177 11.0754L10.2848 10.9867L14.883 10.6848C15.0783 10.6671 15.2559 10.5783 15.3802 10.4185C15.4867 10.241 15.5222 10.0457 15.4867 9.8504ZM3.50273 10.0634C3.37845 9.65511 3.27193 9.28227 3.14765 8.92719C3.02337 8.57211 2.88134 8.21703 2.7038 7.82644L4.2484 6.7257C4.71 7.77318 5.08284 8.83842 5.40241 9.93917L3.50273 10.0634Z" fill="#2C4155"/>
<path d="M8.82901 11.6081V11.7679C8.82901 11.8744 8.7935 11.9632 8.72249 12.0342C8.65147 12.1052 8.5627 12.1407 8.45618 12.1407H5.88184C5.77532 12.1407 5.68655 12.1052 5.61553 12.0342C5.56227 11.981 5.52676 11.9099 5.50901 11.8389L4.55029 11.8922C4.5858 12.2118 4.72783 12.4958 4.94088 12.7089C5.18944 12.9574 5.52676 13.0995 5.88184 13.0995H8.47393C8.84676 13.0995 9.18409 12.9574 9.41489 12.7089C9.66345 12.4603 9.80548 12.123 9.80548 11.7679V11.5371L8.82901 11.6081Z" fill="#2C4155"/>
</svg>
