<svg width="16" height="16" viewBox="0 0 16 16" fill="none" xmlns="http://www.w3.org/2000/svg">
<path fill-rule="evenodd" clip-rule="evenodd" d="M8 10.2857C9.89355 10.2857 11.4286 8.75069 11.4286 6.85714C11.4286 4.9636 9.89355 3.42857 8 3.42857C6.10645 3.42857 4.57143 4.9636 4.57143 6.85714C4.57143 8.75069 6.10645 10.2857 8 10.2857ZM8 9.14286C9.26237 9.14286 10.2857 8.11951 10.2857 6.85714C10.2857 5.59478 9.26237 4.57143 8 4.57143C6.73764 4.57143 5.71429 5.59478 5.71429 6.85714C5.71429 8.11951 6.73764 9.14286 8 9.14286Z" fill="#2C4155"/>
<path fill-rule="evenodd" clip-rule="evenodd" d="M2.41807 13.7308C0.926389 12.2776 0 10.247 0 8C0 3.58172 3.58172 0 8 0C12.4183 0 16 3.58172 16 8C16 10.2469 15.0737 12.2775 13.5821 13.7306C12.1407 15.1349 10.1714 16 8 16C6.067 16 4.29413 15.3144 2.91126 14.1732C2.74079 14.0325 2.57625 13.8849 2.41807 13.7308ZM12.8404 12.8571C14.0862 11.6155 14.8571 9.89779 14.8571 8C14.8571 4.2129 11.7871 1.14286 8 1.14286C4.2129 1.14286 1.14286 4.2129 1.14286 8C1.14286 9.89787 1.91388 11.6157 3.15977 12.8572C4.4 11.6212 6.11085 10.8571 8.00015 10.8571C9.88938 10.8571 11.6002 11.6212 12.8404 12.8571ZM11.9627 13.5969C10.9344 12.6069 9.53816 12 8.00015 12C6.46208 12 5.06576 12.607 4.03752 13.597C5.10041 14.3509 6.38737 14.8096 7.77894 14.8536C7.85234 14.856 7.92603 14.8571 8 14.8571C8.08044 14.8571 8.16055 14.8558 8.24031 14.853C9.62458 14.8053 10.9046 14.3474 11.9627 13.5969Z" fill="#2C4155"/>
</svg>
