<svg width="22" height="20" viewBox="0 0 22 20" fill="none" xmlns="http://www.w3.org/2000/svg">
<path d="M0 1C0 0.447715 0.378836 0 0.846154 0H21.1538C21.6212 0 22 0.447715 22 1C22 1.55228 21.6212 2 21.1538 2H0.846154C0.378837 2 0 1.55228 0 1Z" fill="#BBBBBB"/>
<path d="M0 10C0 9.44772 0.378836 9 0.846154 9H21.1538C21.6212 9 22 9.44772 22 10C22 10.5523 21.6212 11 21.1538 11H0.846154C0.378837 11 0 10.5523 0 10Z" fill="#BBBBBB"/>
<path d="M0 19C0 18.4477 0.378836 18 0.846154 18H21.1538C21.6212 18 22 18.4477 22 19C22 19.5523 21.6212 20 21.1538 20H0.846154C0.378837 20 0 19.5523 0 19Z" fill="#BBBBBB"/>
</svg>
