<svg width="26" height="24" viewBox="0 0 26 24" fill="none" xmlns="http://www.w3.org/2000/svg">
<path fill-rule="evenodd" clip-rule="evenodd" d="M5.15428 18.0946L4.64412 19.2619C4.27576 20.1048 3.82532 20.917 3.30114 21.6888C3.56505 21.6301 3.82942 21.5636 4.09395 21.4893C5.19932 21.1788 6.23058 20.7526 7.17458 20.2336L7.95635 19.8037L8.79751 20.1017C10.0697 20.5524 11.4668 20.8033 12.9387 20.8033C19.2064 20.8033 23.8604 16.3685 23.8604 11.3923C23.8604 6.41603 19.2064 1.98126 12.9387 1.98126C6.67095 1.98126 2.01695 6.41603 2.01695 11.3923C2.01695 13.5341 2.84942 15.5321 4.30176 17.1468L5.15428 18.0946ZM25.8462 11.3923C25.8462 17.684 20.0673 22.7845 12.9387 22.7845C11.2402 22.7845 9.61836 22.495 8.13304 21.9688C7.056 22.561 5.88373 23.0449 4.63211 23.3965C3.39582 23.7437 2.15808 23.9406 0.944015 23.9988C0.0510018 24.0416 -0.305884 22.9247 0.303078 22.2716C1.37293 21.1242 2.22651 19.837 2.82386 18.4701C1.07549 16.5263 0.0311834 14.0669 0.0311834 11.3923C0.0311834 5.10049 5.81006 0 12.9387 0C20.0673 0 25.8462 5.10049 25.8462 11.3923Z" fill="#BBBBBB"/>
</svg>
