<svg width="26" height="26" viewBox="0 0 26 26" fill="none" xmlns="http://www.w3.org/2000/svg">
<path fill-rule="evenodd" clip-rule="evenodd" d="M13 16.7143C16.077 16.7143 18.5714 14.2199 18.5714 11.1429C18.5714 8.06584 16.077 5.57143 13 5.57143C9.92299 5.57143 7.42857 8.06584 7.42857 11.1429C7.42857 14.2199 9.92299 16.7143 13 16.7143ZM13 14.8571C15.0513 14.8571 16.7143 13.1942 16.7143 11.1429C16.7143 9.09151 15.0513 7.42857 13 7.42857C10.9487 7.42857 9.28571 9.09151 9.28571 11.1429C9.28571 13.1942 10.9487 14.8571 13 14.8571Z" fill="white"/>
<path fill-rule="evenodd" clip-rule="evenodd" d="M3.92937 22.3126C1.50538 19.9512 0 16.6514 0 13C0 5.8203 5.8203 0 13 0C20.1797 0 26 5.8203 26 13C26 16.6512 24.4947 19.9509 22.0709 22.3123C19.7286 24.5943 16.5285 26 13 26C9.85888 26 6.97796 24.886 4.73079 23.0314C4.45379 22.8028 4.18641 22.563 3.92937 22.3126ZM20.8656 20.8927C22.8901 18.8752 24.1429 16.0839 24.1429 13C24.1429 6.84597 19.154 1.85714 13 1.85714C6.84597 1.85714 1.85714 6.84597 1.85714 13C1.85714 16.084 3.11005 18.8754 5.13463 20.893C7.15001 18.8845 9.93013 17.6429 13.0002 17.6429C16.0702 17.6429 18.8503 18.8844 20.8656 20.8927ZM19.4393 22.095C17.7684 20.4862 15.4995 19.5 13.0002 19.5C10.5009 19.5 8.23186 20.4863 6.56097 22.0952C8.28817 23.3202 10.3795 24.0656 12.6408 24.1372C12.7601 24.141 12.8798 24.1429 13 24.1429C13.1307 24.1429 13.2609 24.1406 13.3905 24.1361C15.6399 24.0587 17.72 23.3145 19.4393 22.095Z" fill="white"/>
</svg>
