<svg width="35" height="26" viewBox="0 0 35 26" fill="none" xmlns="http://www.w3.org/2000/svg">
<path d="M23.8228 9.12549V18.3926C23.8228 20.0495 22.4796 21.3926 20.8228 21.3926H9.24951L5.18484 25.0341V21.3926H3.82275C2.1659 21.3926 0.822754 20.0495 0.822754 18.3926V9.12549C0.822754 7.46863 2.1659 6.12549 3.82275 6.12549H20.8228C22.4796 6.12549 23.8228 7.46863 23.8228 9.12549Z" fill="white" stroke="#2B5E4A" stroke-width="1.5" stroke-linecap="square" stroke-linejoin="round"/>
<path d="M10.6162 4.70801V13.9751C10.6162 15.632 11.9594 16.9751 13.6162 16.9751H25.1895L29.2541 20.6166V16.9751H30.6162C32.2731 16.9751 33.6162 15.632 33.6162 13.9751V4.70801C33.6162 3.05115 32.2731 1.70801 30.6162 1.70801H13.6162C11.9594 1.70801 10.6162 3.05115 10.6162 4.70801Z" fill="white" stroke="#2B5E4A" stroke-width="1.5" stroke-linecap="square" stroke-linejoin="round"/>
</svg>
