<svg width="25" height="32" viewBox="0 0 25 32" fill="none" xmlns="http://www.w3.org/2000/svg">
<path d="M1.13637 25.138L7.78538 31.8047C7.85174 31.8712 7.89184 31.9063 8.01651 32C8.07885 32 8.17289 32 8.2555 32L22.2184 32C22.9668 32 23.3507 32 24.8779 32C24.8779 31.2813 24.8779 30.0532 24.8779 29.3333L24.8779 2.6666C24.8779 2.05029 24.8779 0.781229 24.8779 -1.90735e-05C24.2546 -1.90735e-05 23.0701 -1.90735e-05 22.2183 -1.90735e-05H3.60113C2.83722 -1.90735e-05 1.44025 -1.90735e-05 0.941574 -1.90735e-05C0.941574 0.406229 0.941574 1.96224 0.941574 2.66667L0.941574 24.6667C0.941574 24.7495 0.941574 24.8437 0.941574 24.9062C1.03508 25 1.07 25.0715 1.13637 25.138ZM7.59058 29.7239L3.2116 25.3333H6.26081C6.60863 25.3333 7.29967 25.3333 7.59058 25.3333C7.59058 25.8125 7.59058 26.28 7.59058 26.6666V29.7239ZM2.27135 2.66667C2.27135 2.33496 2.27135 1.81248 2.27135 1.33335C2.78044 1.33335 3.19856 1.33335 3.60113 1.33335L22.2183 1.33335C22.5879 1.33335 23.1949 1.33335 23.5481 1.33335C23.5481 1.68748 23.5481 2.30191 23.5481 2.66667L23.5481 29.3333C23.5481 29.7037 23.5481 30.2813 23.5481 30.6666C23.1949 30.6666 22.5823 30.6666 22.2183 30.6666L8.92036 30.6666V26.6666C8.92036 25.9775 8.92036 24.6875 8.92036 24C8.20352 24 7.03991 24 6.26074 24L2.27135 24L2.27135 2.66667Z" fill="#2B5E4A"/>
<path fill-rule="evenodd" clip-rule="evenodd" d="M7.79844 8.875C7.98463 8.875 8.16685 8.85795 8.34363 8.82532L9.15125 11.0502L9.70865 10.3579L10.3643 10.8218L9.47156 8.36249C10.2673 7.82335 10.7905 6.91043 10.7905 5.875C10.7905 4.21815 9.4509 2.875 7.79844 2.875C6.14598 2.875 4.8064 4.21815 4.8064 5.875C4.8064 6.91044 5.32957 7.82335 6.12533 8.36249L5.20846 10.8883L6.44086 11.0633L6.44219 11.0597L5.25533 10.8941L6.01325 10.3579L6.48448 10.9432L7.25326 8.82532C7.43004 8.85795 7.61225 8.875 7.79844 8.875ZM7.79846 7.5625C8.72797 7.5625 9.48148 6.80698 9.48148 5.875C9.48148 4.94302 8.72797 4.1875 7.79846 4.1875C6.86895 4.1875 6.11543 4.94302 6.11543 5.875C6.11543 6.80698 6.86895 7.5625 7.79846 7.5625Z" fill="#2B5E4A"/>
<rect x="12.3098" y="4.75" width="8.75001" height="1.3125" fill="#2B5E4A"/>
<rect x="4.99731" y="12.3125" width="16.0625" height="1.3125" fill="#2B5E4A"/>
<rect x="4.99731" y="18.6875" width="16.0625" height="1.3125" fill="#2B5E4A"/>
<rect x="12.3098" y="7.9375" width="8.75001" height="1.3125" fill="#2B5E4A"/>
<rect x="4.99731" y="15.5" width="16.0625" height="1.3125" fill="#2B5E4A"/>
<rect x="4.99731" y="21.875" width="16.0625" height="1.3125" fill="#2B5E4A"/>
</svg>
