<svg width="30" height="29" viewBox="0 0 30 29" fill="none" xmlns="http://www.w3.org/2000/svg">
<path d="M27.1423 14.9758V26.4998C27.1423 27.3282 26.4707 27.9998 25.6423 27.9998H15.2314M3.20919 14.9758V26.4998C3.20919 27.3282 3.88076 27.9998 4.70919 27.9998H15.2314M16.0288 9.41001H27.6459C28.4743 9.41001 29.1459 10.0816 29.1459 10.91V13.9758C29.1459 14.5281 28.6982 14.9758 28.1459 14.9758H15.2314H1.81689C1.54075 14.9758 1.31689 14.752 1.31689 14.4758V10.81C1.31689 10.0368 1.9437 9.41001 2.71689 9.41001H15.2314M16.0288 9.41001C16.3275 4.65475 19.3457 -0.636908 22.4182 2.22135C25.7549 5.32547 21.6189 8.45269 16.0288 9.41001ZM16.0288 9.41001H15.2314M15.2314 9.41001V27.9998M14.4658 9.41001C14.1671 4.65475 11.2177 -0.636385 8.14525 2.22187C4.80851 5.32599 8.8757 8.45269 14.4658 9.41001Z" stroke="#2B5E4A" stroke-width="1.5" stroke-linejoin="bevel"/>
</svg>
