<svg width="45" height="14" viewBox="0 0 45 14" fill="none" xmlns="http://www.w3.org/2000/svg">
<path fill-rule="evenodd" clip-rule="evenodd" d="M0.843506 0.384277H8.79986V3.30292L9.5871 4.10338H12.002L21.4799 1.47032V5.21321L22.7148 3.75757C22.7044 3.65937 22.6991 3.55967 22.6991 3.45874C22.6991 1.89769 23.9656 0.632218 25.5278 0.632218C27.09 0.632218 28.3564 1.89769 28.3564 3.45874C28.3564 4.80198 27.4187 5.92637 26.1618 6.21398V6.97949H27.7642L29.4712 5.24391H33.7879C34.6014 4.59172 35.6284 4.20256 36.7447 4.20256C39.3013 4.20256 41.3891 6.24359 41.5179 8.81053L44.8405 11.0789V13.2772H39.1251C38.4242 13.6873 37.6114 13.9218 36.7447 13.9218C35.8781 13.9218 35.0653 13.6873 34.3644 13.2772H13.3748C12.674 13.6873 11.8612 13.9218 10.9945 13.9218C8.85704 13.9218 7.04732 12.4952 6.43611 10.5273L6.43415 10.5296L4.55692 8.89355V4.16002L0.843506 0.384277ZM24.6307 4.85999L23.9715 4.45438C23.7831 4.1658 23.6745 3.8229 23.6745 3.45874C23.6745 2.46162 24.4882 1.62398 25.5278 1.62398C26.0413 1.62398 26.4997 1.82835 26.8321 2.15537C26.5078 2.0817 26.2147 2.05949 25.9512 2.08929C25.3838 2.15344 24.9832 2.45718 24.7584 2.90003C24.5509 3.30878 24.5145 3.79151 24.5424 4.21932C24.5565 4.43545 24.588 4.65206 24.6307 4.85999ZM27.3808 3.42808C27.3809 3.43828 27.381 3.4485 27.381 3.45874C27.381 4.40265 26.6519 5.20366 25.6922 5.28644C25.6166 4.9473 25.5593 4.42493 25.5413 4.14931C25.5192 3.81055 25.56 3.54929 25.6445 3.38282C25.7117 3.25046 25.8179 3.14773 26.0599 3.12038C26.3202 3.09094 26.7405 3.15231 27.3808 3.42808ZM22.8658 4.99531L23.3838 5.30258C23.7798 5.76187 24.321 6.09254 24.9362 6.22335L25.1864 6.37172V6.97949H22.6573L21.9058 6.21538L22.8658 4.99531ZM29.8752 6.23567H32.8565C32.2955 7.03204 31.9653 8.00791 31.9653 9.06219C31.9653 10.2989 32.4197 11.4277 33.1678 12.2854H14.5714C15.3196 11.4277 15.7739 10.2989 15.7739 9.06219C15.7739 7.21173 14.7567 5.60284 13.2598 4.78205L20.5045 2.7694V6.19313L22.2533 7.97125H28.1683L29.8752 6.23567ZM7.82447 3.71373L8.8249 4.73095C7.28392 5.53057 6.22619 7.1554 6.21516 9.03254L5.5323 8.43741V3.74922L3.1983 1.37604H7.82447V3.71373ZM10.9945 12.9301C13.0954 12.9301 14.7985 11.1984 14.7985 9.06219C14.7985 6.92602 13.0954 5.19432 10.9945 5.19432C8.89357 5.19432 7.19046 6.92602 7.19046 9.06219C7.19046 11.1984 8.89357 12.9301 10.9945 12.9301ZM41.4438 9.95452C41.2823 10.8388 40.8854 11.6391 40.3217 12.2854H43.8651V11.6076L41.4438 9.95452ZM36.7447 12.9301C38.8456 12.9301 40.5488 11.1984 40.5488 9.06219C40.5488 6.92602 38.8456 5.19432 36.7447 5.19432C34.6438 5.19432 32.9407 6.92602 32.9407 9.06219C32.9407 11.1984 34.6438 12.9301 36.7447 12.9301ZM38.9881 9.06219C38.9881 10.322 37.9837 11.3432 36.7447 11.3432C35.5057 11.3432 34.5013 10.322 34.5013 9.06219C34.5013 7.8024 35.5057 6.78114 36.7447 6.78114C37.9837 6.78114 38.9881 7.8024 38.9881 9.06219ZM39.9635 9.06219C39.9635 10.8697 38.5224 12.335 36.7447 12.335C34.967 12.335 33.526 10.8697 33.526 9.06219C33.526 7.25466 34.967 5.78938 36.7447 5.78938C38.5224 5.78938 39.9635 7.25466 39.9635 9.06219ZM10.9945 11.3432C12.2335 11.3432 13.2379 10.322 13.2379 9.06219C13.2379 7.8024 12.2335 6.78114 10.9945 6.78114C9.7555 6.78114 8.75109 7.8024 8.75109 9.06219C8.75109 10.322 9.7555 11.3432 10.9945 11.3432ZM10.9945 12.335C12.7722 12.335 14.2133 10.8697 14.2133 9.06219C14.2133 7.25466 12.7722 5.78938 10.9945 5.78938C9.2168 5.78938 7.7757 7.25466 7.7757 9.06219C7.7757 10.8697 9.2168 12.335 10.9945 12.335ZM37.5213 7.46113C37.8327 7.61729 38.0916 7.86384 38.2652 8.1696L37.505 8.61589C37.4886 8.5871 37.4708 8.55936 37.4515 8.53277C37.3685 8.41818 37.2594 8.32503 37.133 8.26165C36.9773 8.18357 36.8023 8.15419 36.6302 8.17724C36.458 8.20028 36.2965 8.27471 36.1659 8.39111C36.0354 8.5075 35.9417 8.66065 35.8968 8.83117C35.8519 9.00169 35.8577 9.18193 35.9135 9.3491C35.9693 9.51627 36.0726 9.66285 36.2104 9.77032C36.3481 9.87779 36.5141 9.94131 36.6873 9.95286C36.828 9.96223 36.9682 9.93702 37.0965 9.87999C37.1262 9.86676 37.1554 9.85181 37.1837 9.83519L37.6226 10.6082C37.3219 10.7847 36.9764 10.8666 36.6299 10.8435C36.2834 10.8204 35.9514 10.6934 35.6759 10.4785C35.4005 10.2635 35.1938 9.97035 35.0822 9.63601C34.9706 9.30167 34.959 8.94119 35.0489 8.60015C35.1387 8.25911 35.3261 7.95282 35.5871 7.72002C35.8482 7.48723 36.1713 7.33837 36.5156 7.29229C36.8599 7.2462 37.2099 7.30497 37.5213 7.46113ZM12.5149 8.1696C12.3413 7.86384 12.0824 7.61729 11.771 7.46113C11.4596 7.30497 11.1096 7.2462 10.7653 7.29229C10.421 7.33837 10.0979 7.48723 9.83685 7.72002C9.57578 7.95282 9.38846 8.25911 9.29859 8.60015C9.20872 8.94119 9.22032 9.30167 9.33194 9.63601C9.44356 9.97035 9.65018 10.2635 9.92566 10.4785C10.2012 10.6934 10.5331 10.8204 10.8796 10.8435C11.2261 10.8666 11.5716 10.7847 11.8723 10.6082L11.4334 9.83519C11.4051 9.85181 11.376 9.86676 11.3462 9.87999C11.2179 9.93702 11.0777 9.96223 10.9371 9.95286C10.7638 9.94131 10.5978 9.87779 10.4601 9.77032C10.3223 9.66285 10.219 9.51627 10.1632 9.3491C10.1074 9.18193 10.1016 9.00169 10.1465 8.83117C10.1915 8.66065 10.2851 8.5075 10.4157 8.39111C10.5462 8.27471 10.7077 8.20028 10.8799 8.17724C11.052 8.15419 11.227 8.18357 11.3827 8.26165C11.5091 8.32503 11.6182 8.41818 11.7012 8.53277C11.7205 8.55936 11.7384 8.5871 11.7547 8.61589L12.5149 8.1696Z" fill="#2B5E4A"/>
</svg>
