<svg width="29" height="33" viewBox="0 0 29 33" fill="none" xmlns="http://www.w3.org/2000/svg">
<path d="M19.388 28.8417C19.388 32.5895 14.4022 32.4891 14.4022 28.8417L14.4023 16.5238M14.4023 16.5238C16.6381 12.3737 20.4832 14.1241 21.2109 16.8389M14.4023 16.5238C12.1666 12.3737 8.53308 14.1241 7.8053 16.8389M7.9002 16.8389C5.96485 12.5156 1.82409 13.774 0.999988 17.1539C0.482589 9.43352 7.4653 3.54405 14.4023 3.54417M21.168 16.8389C23.1033 12.5156 27.1735 13.774 27.9976 17.154C28.515 9.43356 21.3391 3.54419 14.4023 3.54417M14.4023 3.54417C14.4023 2.49875 14.4023 1.91262 14.4023 0.867188" stroke="#2B5E4A" stroke-width="1.5"/>
</svg>
