<svg width="35" height="34" viewBox="0 0 35 34" fill="none" xmlns="http://www.w3.org/2000/svg">
<path d="M20.3903 3.8568C20.3903 5.49748 18.9302 6.92796 17.0002 6.92796C15.0702 6.92796 13.6101 5.49748 13.6101 3.8568C13.6101 2.21612 15.0702 0.785645 17.0002 0.785645C18.9302 0.785645 20.3903 2.21612 20.3903 3.8568Z" stroke="#2B5E4A" stroke-width="1.5"/>
<path d="M16.376 7.47461H17.6242C20.5237 7.47461 22.8742 9.82511 22.8742 12.7246V13.9237H11.126V12.7246C11.126 9.82512 13.4765 7.47461 16.376 7.47461Z" stroke="#2B5E4A" stroke-width="1.5"/>
<path d="M10.0143 22.8212C10.0143 24.4618 8.55424 25.8923 6.62421 25.8923C4.69418 25.8923 3.23413 24.4618 3.23413 22.8212C3.23413 21.1805 4.69418 19.75 6.62421 19.75C8.55424 19.75 10.0143 21.1805 10.0143 22.8212Z" stroke="#2B5E4A" stroke-width="1.5"/>
<path d="M6 26.439H7.24825C10.1477 26.439 12.4982 28.7895 12.4982 31.689V32.888H0.75V31.689C0.75 28.7895 3.10051 26.439 6 26.439Z" stroke="#2B5E4A" stroke-width="1.5"/>
<path d="M31.0143 22.8212C31.0143 24.4618 29.5542 25.8923 27.6242 25.8923C25.6942 25.8923 24.2341 24.4618 24.2341 22.8212C24.2341 21.1805 25.6942 19.75 27.6242 19.75C29.5542 19.75 31.0143 21.1805 31.0143 22.8212Z" stroke="#2B5E4A" stroke-width="1.5"/>
<path d="M27 26.439H28.2483C31.1477 26.439 33.4982 28.7895 33.4982 31.689V32.888H21.75V31.689C21.75 28.7895 24.1005 26.439 27 26.439Z" stroke="#2B5E4A" stroke-width="1.5"/>
<circle cx="9.87598" cy="5.7627" r="0.75" fill="#2B5E4A"/>
<circle cx="7.99561" cy="7.09033" r="0.75" fill="#2B5E4A"/>
<circle cx="6.31689" cy="8.73438" r="0.75" fill="#2B5E4A"/>
<circle cx="5.05371" cy="10.4619" r="0.75" fill="#2B5E4A"/>
<circle cx="4.09448" cy="12.3843" r="0.75" fill="#2B5E4A"/>
<circle cx="3.23413" cy="18.8452" r="0.75" fill="#2B5E4A"/>
<circle cx="3.09448" cy="16.7305" r="0.75" fill="#2B5E4A"/>
<circle cx="15.0071" cy="31.6289" r="0.75" fill="#2B5E4A"/>
<circle cx="17" cy="31.7871" r="0.75" fill="#2B5E4A"/>
<circle cx="18.9929" cy="31.6289" r="0.75" fill="#2B5E4A"/>
<circle cx="3.40015" cy="14.6206" r="0.75" fill="#2B5E4A"/>
<circle cx="31" cy="17.7871" r="0.75" fill="#2B5E4A"/>
<circle cx="30.8508" cy="15.5815" r="0.75" fill="#2B5E4A"/>
<circle cx="30.2727" cy="13.376" r="0.75" fill="#2B5E4A"/>
<circle cx="29.4612" cy="11.3594" r="0.75" fill="#2B5E4A"/>
<circle cx="28.2268" cy="9.43701" r="0.75" fill="#2B5E4A"/>
<circle cx="26.7175" cy="7.74805" r="0.75" fill="#2B5E4A"/>
<circle cx="24.9939" cy="6.33008" r="0.75" fill="#2B5E4A"/>
<circle cx="23.176" cy="5.21289" r="0.75" fill="#2B5E4A"/>
</svg>
