<svg width="19" height="26" viewBox="0 0 19 26" fill="none" xmlns="http://www.w3.org/2000/svg">
<path fill-rule="evenodd" clip-rule="evenodd" d="M16.7143 1.85714H1.85714V24.1429H16.7143V1.85714ZM1.85714 0C0.831471 0 0 0.831472 0 1.85714V24.1429C0 25.1685 0.831472 26 1.85714 26H16.7143C17.74 26 18.5714 25.1685 18.5714 24.1429V1.85714C18.5714 0.831471 17.74 0 16.7143 0H1.85714Z" fill="#BBBBBB"/>
<path d="M3.71429 5.57143C3.71429 5.05859 4.13002 4.64286 4.64286 4.64286H11.1429C11.6557 4.64286 12.0714 5.05859 12.0714 5.57143C12.0714 6.08426 11.6557 6.5 11.1429 6.5H4.64286C4.13002 6.5 3.71429 6.08426 3.71429 5.57143Z" fill="#BBBBBB"/>
<path d="M3.71429 11.1429C3.71429 10.63 4.13002 10.2143 4.64286 10.2143H8.35714C8.86998 10.2143 9.28571 10.63 9.28571 11.1429C9.28571 11.6557 8.86998 12.0714 8.35714 12.0714H4.64286C4.13002 12.0714 3.71429 11.6557 3.71429 11.1429Z" fill="#BBBBBB"/>
<path d="M3.71429 16.7143C3.71429 16.2015 4.13002 15.7857 4.64286 15.7857H9.28571C9.79855 15.7857 10.2143 16.2015 10.2143 16.7143C10.2143 17.2271 9.79855 17.6429 9.28571 17.6429H4.64286C4.13002 17.6429 3.71429 17.2271 3.71429 16.7143Z" fill="#BBBBBB"/>
</svg>
