<svg width="20" height="18" viewBox="0 0 20 18" fill="none" xmlns="http://www.w3.org/2000/svg">
<path d="M19.8634 8.58004C18.6495 6.98957 17.1915 5.6012 15.5435 4.46651L18.362 1.64796C18.6458 1.37391 18.6537 0.921741 18.3796 0.637982C18.1056 0.354224 17.6534 0.346355 17.3696 0.620404C17.3637 0.626138 17.3578 0.631997 17.352 0.637982L14.2728 3.71438C12.9621 2.99301 11.4958 2.60081 9.99999 2.57152C4.57147 2.57152 0.315095 8.33433 0.136511 8.58C-0.0455038 8.8304 -0.0455038 9.16957 0.136511 9.41998C1.35048 11.0104 2.80848 12.3988 4.45646 13.5335L1.63792 16.3521C1.35416 16.6261 1.34629 17.0783 1.62034 17.362C1.89439 17.6458 2.34656 17.6537 2.63032 17.3796C2.63626 17.3739 2.64212 17.368 2.6479 17.362L5.72713 14.2856C7.03782 15.007 8.50415 15.3992 9.99995 15.4285C15.4285 15.4285 19.6848 9.66569 19.8634 9.41998C20.0455 9.16961 20.0455 8.83044 19.8634 8.58004ZM5.49502 12.4971C4.03994 11.528 2.73566 10.3496 1.62436 9.00003C2.67577 7.72646 6.08572 4.00006 9.99999 4.00006C11.1136 4.02258 12.2085 4.29089 13.2064 4.78575L11.9664 6.02575C10.3258 4.93655 8.11279 5.38353 7.02359 7.02414C6.23015 8.21923 6.23015 9.77346 7.02359 10.9686L5.49502 12.4971ZM11.9285 8.08217C12.0683 8.36802 12.1416 8.68183 12.1428 9.00003C12.1428 10.1835 11.1834 11.1429 9.99999 11.1429C9.68179 11.1417 9.36798 11.0684 9.08213 10.9286L11.9285 8.08217ZM8.07144 9.91785C7.93166 9.632 7.85837 9.31819 7.85716 8.99999C7.85716 7.81653 8.81654 6.85715 9.99999 6.85715C10.3182 6.85836 10.632 6.93165 10.9179 7.07143L8.07144 9.91785ZM9.99999 14C8.88635 13.9774 7.79149 13.7091 6.79361 13.2143L8.03361 11.9743C9.67421 13.0635 11.8872 12.6165 12.9764 10.9759C13.7698 9.78078 13.7698 8.22656 12.9764 7.03146L14.505 5.50289C15.96 6.47203 17.2643 7.65042 18.3756 8.99999C17.3242 10.2736 13.9142 14 9.99999 14Z" fill="#757678"/>
</svg>
