<svg width="24" height="15" viewBox="0 0 24 15" fill="none" xmlns="http://www.w3.org/2000/svg">
<path d="M12 14.72C9.44 14.72 6.96 14 4.8 12.64C2.8 11.36 1.12 9.52 0 7.36C1.12 5.2 2.8 3.36 4.8 2.08C6.96 0.719999 9.44 0 12 0C14.56 0 17.04 0.719999 19.2 2.08C21.28 3.36 22.88 5.2 24 7.36C22.88 9.52 21.2 11.36 19.2 12.64C17.04 14 14.56 14.72 12 14.72ZM6 3.28C5.92 3.28 5.76 3.36 5.68 3.44C4.16 4.4 2.88 5.68 1.92 7.2L1.84 7.36L1.92 7.52C2.88 9.04 4.16 10.32 5.68 11.28C7.6 12.48 9.76 13.12 12 13.12C14.24 13.12 16.4 12.48 18.32 11.28C19.84 10.32 21.12 9.04 22.08 7.52L22.16 7.36L22.08 7.2C21.12 5.68 19.84 4.4 18.32 3.44C18.24 3.36 18.16 3.36 18 3.28L17.12 2.8L17.44 3.76C17.68 4.4 17.76 5.04 17.76 5.76C17.76 8.96 15.12 11.6 11.92 11.6C8.72 11.6 6.08 8.96 6.08 5.76C6.08 5.04 6.16 4.4 6.4 3.76L6.72 2.8L6 3.28ZM10.16 2.72C8.88 2.72 7.84 3.76 7.84 5.04C7.84 6.32 8.88 7.36 10.16 7.36C11.44 7.36 12.48 6.32 12.48 5.04C12.48 3.76 11.36 2.72 10.16 2.72Z" fill="#BBBBBB"/>
</svg>
