<svg width="26" height="27" viewBox="0 0 26 27" fill="none" xmlns="http://www.w3.org/2000/svg">
<path fill-rule="evenodd" clip-rule="evenodd" d="M13 1C17.7444 1 22.2041 2.95491 25.5572 6.50381C26.1476 7.12882 26.1476 8.14512 25.5573 8.77028L23.0528 11.4216C22.7597 11.7324 22.3661 11.9034 21.945 11.9034C21.5239 11.9034 21.1303 11.7324 20.8372 11.421C20.0003 10.5362 19.0501 9.80733 18.0132 9.25525C17.4926 8.96725 17.1741 8.41569 17.1741 7.81143L16.8017 5.01746C14.0655 4.12945 11.9631 4.12888 9.19945 5.01797L8.82276 7.88324C8.82697 8.41666 8.49263 8.98156 7.97522 9.2504C6.94253 9.79982 5.99343 10.5286 5.15651 11.414C4.56826 12.0348 3.52922 12.0348 2.94092 11.414L0.442787 8.77018C-0.147596 8.14517 -0.147596 7.12882 0.442787 6.50381C3.79582 2.95491 8.25558 1 13 1ZM17.6579 10.9033C18.6598 10.9033 19.576 11.456 20.0479 12.3461L23.5147 18.888C23.7231 19.2825 23.8332 19.726 23.8332 20.171V23.9872C23.8332 25.1899 22.8609 26.1678 21.6665 26.1678H4.33319C3.13876 26.1678 2.1665 25.1898 2.1665 23.9872V20.1711C2.1665 19.726 2.27655 19.2825 2.48495 18.8886L5.95179 12.3461C6.42365 11.456 7.33984 10.9033 8.34171 10.9033H17.6579ZM8.66544 21.8066C8.66544 22.4076 9.15101 22.8969 9.74875 22.8969C10.3465 22.8969 10.8321 22.4076 10.8321 21.8066C10.8321 21.2055 10.3465 20.7163 9.74875 20.7163C9.15106 20.7163 8.66544 21.2055 8.66544 21.8066ZM8.66544 18.5356C8.66544 19.1366 9.15101 19.6259 9.74875 19.6259C10.3465 19.6259 10.8321 19.1366 10.8321 18.5356C10.8321 17.9346 10.3465 17.4453 9.74875 17.4453C9.15106 17.4453 8.66544 17.9346 8.66544 18.5356ZM8.66544 15.2646C8.66544 15.8657 9.15101 16.3549 9.74875 16.3549C10.3465 16.3549 10.8321 15.8657 10.8321 15.2646C10.8321 14.6636 10.3465 14.1743 9.74875 14.1743C9.15106 14.1743 8.66544 14.6636 8.66544 15.2646ZM11.9165 21.8066C11.9165 22.4076 12.4021 22.8969 12.9998 22.8969C13.5976 22.8969 14.0831 22.4076 14.0831 21.8066C14.0831 21.2055 13.5975 20.7163 12.9998 20.7163C12.4021 20.7163 11.9165 21.2055 11.9165 21.8066ZM11.9165 18.5356C11.9165 19.1366 12.4021 19.6259 12.9998 19.6259C13.5976 19.6259 14.0831 19.1366 14.0831 18.5356C14.0831 17.9346 13.5975 17.4453 12.9998 17.4453C12.4021 17.4453 11.9165 17.9346 11.9165 18.5356ZM11.9165 15.2646C11.9165 15.8657 12.4021 16.3549 12.9998 16.3549C13.5976 16.3549 14.0831 15.8657 14.0831 15.2646C14.0831 14.6636 13.5975 14.1743 12.9998 14.1743C12.4021 14.1743 11.9165 14.6636 11.9165 15.2646ZM15.1654 21.8066C15.1654 22.4076 15.651 22.8969 16.2488 22.8969C16.8465 22.8969 17.3321 22.4076 17.3321 21.8066C17.3321 21.2055 16.8465 20.7163 16.2488 20.7163C15.6511 20.7163 15.1654 21.2055 15.1654 21.8066ZM15.1654 18.5356C15.1654 19.1366 15.651 19.6259 16.2488 19.6259C16.8465 19.6259 17.3321 19.1366 17.3321 18.5356C17.3321 17.9346 16.8465 17.4453 16.2488 17.4453C15.6511 17.4453 15.1654 17.9346 15.1654 18.5356ZM15.1654 15.2646C15.1654 15.8657 15.651 16.3549 16.2488 16.3549C16.8465 16.3549 17.3321 15.8657 17.3321 15.2646C17.3321 14.6636 16.8465 14.1743 16.2488 14.1743C15.6511 14.1743 15.1654 14.6636 15.1654 15.2646Z" fill="#2B5E4A"/>
</svg>
